<svg width="241" height="197" viewBox="0 0 241 197" fill="none" xmlns="http://www.w3.org/2000/svg">
<path fill-rule="evenodd" clip-rule="evenodd" d="M148.845 0.823531C145.918 2.06933 144.38 3.78624 141.774 8.71464C139.447 13.1132 136.46 14.2947 126.216 14.8681C118.681 15.2899 116.435 16.3661 112.153 21.6088C110.004 24.2398 108.816 25.3218 105.18 27.9553C103.587 29.1095 102.077 30.3062 101.825 30.615C99.4835 33.4772 98.5762 36.203 98.8804 39.4584L99.0572 41.3479L96.7726 42.7335C95.5162 43.4954 94.4141 44.1188 94.3235 44.1188C94.2327 44.1188 93.3803 44.7065 92.4288 45.4252C91.4773 46.1436 90.3474 46.9521 89.9178 47.2219C88.3767 48.1893 82.3833 54.394 81.1321 56.3171L79.8559 58.2791L48.3881 58.4314L16.9203 58.5836L15.5283 59.2688C14.6045 59.7235 13.9125 60.352 13.4704 61.1374L12.8046 62.3207V114.886V167.451H7.92663H3.0487V172.018V176.586H1.52435H0V181.002V185.417H1.52435H3.0487V190.888V196.358L9.83207 196.53C13.5631 196.626 31.0892 196.77 48.7793 196.852L80.9431 197L82.2622 196.326C82.9875 195.955 83.9213 195.247 84.3372 194.754L85.0936 193.856L85.9146 194.798C86.3661 195.316 87.2542 196.021 87.888 196.365C89.0298 196.983 89.348 196.989 121.119 196.987L153.197 196.984L154.798 196.067C155.678 195.562 156.398 194.958 156.398 194.725C156.398 193.967 157.122 194.032 157.812 194.852C158.183 195.292 159.079 195.955 159.805 196.325L161.124 196.998L198.471 196.918L235.817 196.837L235.903 193.107L235.989 189.376H237.046H238.104V186.027V182.677H237.037H235.97V174.01V165.344L238.485 165.255L241 165.167V162.426V159.685L239.867 159.591L238.734 159.497L238.648 156.394L238.561 153.29L237.271 153.197L235.981 153.104L235.899 145.888L235.817 138.673L232.54 138.587L229.262 138.5L229.261 100.369L229.26 62.2379L228.613 61.1776C227.799 59.8431 227.327 59.4935 225.547 58.9043C224.329 58.5011 221.761 58.4305 208.169 58.4262L192.221 58.4207L191.004 56.3804C188.605 52.3561 184.002 47.4326 179.398 43.965C177.349 42.4223 171.318 38.6374 170.909 38.6374C170.802 38.6374 170.204 38.3219 169.578 37.9367C168.953 37.5511 167.343 36.7801 166.002 36.2234C164.66 35.6664 163.131 35.0227 162.602 34.7925C162.074 34.5622 161.489 34.3741 161.302 34.3741C161.116 34.3741 160.725 34.2443 160.434 34.0857C160.143 33.927 158.876 33.5119 157.618 33.1636C156.36 32.8155 154.92 32.4081 154.417 32.2585C153.914 32.109 152.919 31.8952 152.207 31.7832C151.241 31.6315 150.911 31.4412 150.911 31.035C150.911 30.2645 151.559 29.8357 152.283 30.1269C153.224 30.5057 154.684 30.457 156.494 29.9862C159.041 29.3232 160.473 28.4544 162.043 26.6191C162.836 25.6921 163.712 24.9338 163.989 24.9338C165.61 24.9338 166.398 22.9828 165.273 21.7558C164.769 21.2068 164.73 20.8965 164.964 19.3002C165.371 16.5183 164.757 13.4969 163.495 12.0787C163.24 11.7915 162.914 10.9008 162.77 10.0993C162.554 8.89644 162.245 8.4025 161.002 7.2715C160.174 6.51781 159.205 5.27048 158.849 4.49973C158.069 2.8078 157.036 1.77517 155.087 0.740397C153.18 -0.272142 151.363 -0.247781 148.845 0.823531ZM161.158 8.95582C161.436 9.37971 161.588 9.80239 161.496 9.89497C161.286 10.1045 160.057 8.90435 160.057 8.48959C160.057 7.92775 160.648 8.17776 161.158 8.95582ZM161.749 17.354C162.059 18.0419 162.629 18.8114 163.014 19.0639C163.401 19.3169 163.715 19.8288 163.715 20.2064C163.715 20.8554 163.653 20.8736 162.499 20.5661C161.441 20.2841 161.174 20.3234 160.441 20.8675C159.433 21.617 159.234 22.5473 159.884 23.4743C160.6 24.4959 160.472 24.7268 159.295 24.5361C158.404 24.3918 158.228 24.4542 158.228 24.915C158.228 25.806 159.996 26.0073 161.041 25.2353C162.136 24.4262 162.111 24.7149 160.959 26.1684C160.429 26.8368 159.286 27.7013 158.291 28.1858C155.966 29.3184 152.344 29.4018 150.454 28.3661C148.164 27.1121 148.159 27.3825 150.534 24.2264L152.707 21.3392L154.016 21.7896C156.192 22.5388 157.923 21.9014 157.923 20.3508C157.923 19.5368 157.451 18.9978 155.898 18.0358C155.354 17.6987 155.353 17.6624 155.876 17.1222C156.238 16.748 157.055 16.4985 158.315 16.3773C159.357 16.2775 160.429 16.1745 160.697 16.149C160.995 16.1206 161.403 16.5878 161.749 17.354ZM153.745 19.5733C153.182 20.324 152.74 20.341 152.74 19.612C152.74 19.193 153.178 18.9113 153.898 18.8674C154.174 18.8507 154.128 19.0623 153.745 19.5733ZM156.703 19.9092C156.703 19.993 156.635 20.0615 156.551 20.0615C156.467 20.0615 156.398 19.993 156.398 19.9092C156.398 19.8255 156.467 19.7569 156.551 19.7569C156.635 19.7569 156.703 19.8255 156.703 19.9092ZM156.703 20.5183C156.703 20.602 156.635 20.6705 156.551 20.6705C156.467 20.6705 156.398 20.602 156.398 20.5183C156.398 20.4345 156.467 20.366 156.551 20.366C156.635 20.366 156.703 20.4345 156.703 20.5183ZM161.511 22.1931C161.301 22.5281 161.025 22.8022 160.898 22.8022C160.513 22.8022 160.639 21.9507 161.048 21.7857C161.779 21.4912 161.889 21.5883 161.511 22.1931ZM164.527 23.4874C164.442 23.6969 164.373 23.5254 164.373 23.1067C164.373 22.688 164.442 22.5168 164.527 22.726C164.612 22.9356 164.612 23.2781 164.527 23.4874ZM154.264 25.7905C154.264 26.3748 156.089 27.712 157.113 27.878C158.098 28.0375 158.228 27.9846 158.228 27.4236C158.228 26.9403 157.976 26.7412 157.172 26.5907C156.591 26.4817 155.956 26.2016 155.762 25.9677C155.384 25.5124 154.264 25.38 154.264 25.7905ZM147.447 29.6539C147.755 30.457 147.354 30.9591 146.529 30.8017C145.79 30.6604 145.777 30.6235 146.235 29.9256C146.783 29.09 147.195 28.9974 147.447 29.6539ZM145.236 31.9881C146.764 32.1833 148.188 32.476 148.401 32.6386C148.673 32.8472 148.727 33.3837 148.584 34.4614C148.335 36.3358 148.843 36.2091 149.745 34.1722C150.322 32.8673 150.369 32.8359 151.463 33.0171C153.41 33.3396 153.436 33.3633 153.205 34.5915C152.761 36.9567 150.544 39.7544 148.237 40.8598C146.61 41.6394 143.899 42.0739 141.938 41.8693C137.475 41.4034 132.955 37.4677 132.194 33.3843L131.981 32.2424H133.987C135.876 32.2424 135.975 32.2768 135.678 32.8313C135.505 33.1554 135.362 33.635 135.362 33.8972C135.362 34.7925 136.123 34.3747 136.991 33.0031L137.857 31.6333H140.157C141.423 31.6333 143.708 31.7929 145.236 31.9881ZM130.965 33.3843C131.148 34.2057 131.723 35.6856 132.383 37.0328C133.069 38.4346 135.843 40.8217 137.954 41.8276C141.52 43.5265 145.012 43.5286 148.598 41.8339C151.605 40.4133 153.479 38.1568 154.295 34.9776L154.669 33.5229L156.22 33.9727C164.278 36.3099 172.533 40.34 178.552 44.8749L181.158 46.8385L179.525 47.5602C175.636 49.2786 171.504 54.0834 170.104 58.5151C169.722 59.7253 169.366 60.7689 169.314 60.8341C169.262 60.8995 167.946 60.3971 166.391 59.7177C163.796 58.5845 159.527 57.2099 158.609 57.2124C157.842 57.2142 158.255 58.1676 159.193 58.5617C160.08 58.9341 160.106 58.9838 159.517 59.1707C159.164 59.2825 158.444 59.8648 157.917 60.4644L156.958 61.5549L156.07 60.479C154.399 58.4539 154.188 58.4314 136.953 58.4314H121.579L120.967 57.6548C120.409 56.9465 120.176 56.8838 118.299 56.9386C116.06 57.0038 115.548 56.8393 115.542 56.0533C115.535 55.1258 114.343 51.7035 113.114 49.0843C111.758 46.1947 109.597 43.32 107.129 41.1226L105.466 39.6423L108.657 38.3727C111.433 37.2682 114.689 36.2243 120.576 34.5507C123.087 33.8366 128.736 32.6727 130.098 32.5889C130.607 32.5576 130.825 32.7576 130.965 33.3843ZM106.679 42.1994C108.38 43.7552 110.84 46.9244 111.715 48.6866C112.736 50.7425 113.996 54.2491 114.199 55.5981C114.381 56.8116 114.341 56.9535 113.831 56.8993C112.84 56.7943 112.567 56.8893 111.651 57.6591L110.759 58.4091L99.8142 58.4965C89.1916 58.5812 88.8295 58.6037 87.4978 59.2636C86.7173 59.6504 85.8933 60.355 85.5859 60.898L85.0463 61.8524L84.3637 60.8271C83.9884 60.2631 83.0958 59.5203 82.3802 59.1762L81.0787 58.5507L82.6028 56.3831C85.3823 52.4298 90.5425 47.8407 95.7589 44.6834C99.5953 42.3617 104.102 40.2142 104.591 40.4755C104.86 40.6192 105.799 41.3948 106.679 42.1994ZM184.769 50.3615C186.799 52.4792 189.683 56.1493 190.39 57.5141L190.878 58.4576L188.526 58.3683L186.175 58.2791L185.072 56.1474C183.827 53.7396 182.934 52.4052 181.115 50.2357C179.808 48.676 179.825 48.5149 181.345 48.0882C182.294 47.8221 182.405 47.8958 184.769 50.3615ZM180.271 50.8944C181.975 52.9 184.751 57.484 184.751 58.2934C184.751 58.3692 181.733 58.4314 178.044 58.4314C172.695 58.4314 171.337 58.3501 171.337 58.0297C171.337 57.4389 173.446 54.1166 174.786 52.5949C175.914 51.3144 178.291 49.3188 178.707 49.3033C178.82 49.299 179.523 50.0153 180.271 50.8944ZM113.107 58.2791C113.107 58.3629 113.038 58.4314 112.954 58.4314C112.871 58.4314 112.802 58.3629 112.802 58.2791C112.802 58.1954 112.871 58.1268 112.954 58.1268C113.038 58.1268 113.107 58.1954 113.107 58.2791ZM120.017 58.33C119.906 58.4414 119.723 58.4414 119.611 58.33C119.499 58.2182 119.591 58.1268 119.814 58.1268C120.038 58.1268 120.129 58.2182 120.017 58.33ZM81.0812 59.8447C81.6181 59.9519 82.5272 60.482 83.1009 61.0226L84.1442 62.0052V67.5269V73.0485H77.249H70.3537L69.1824 71.8429C67.3032 69.9088 65.7773 69.2572 63.1082 69.2489C61.1347 69.2429 60.5976 69.3659 59.1845 70.1479C58.2839 70.6458 57.2043 71.5024 56.7855 72.0509L56.0239 73.0485H34.8714H13.7192V68.4145C13.7192 63.0622 14.0731 61.6429 15.6456 60.6925C16.1792 60.37 16.8898 60.017 17.2252 59.9083C18.0191 59.6504 79.8007 59.5889 81.0812 59.8447ZM112.58 60.8675C112.723 61.4538 112.946 62.5086 113.075 63.2115C113.348 64.6948 113.911 65.4923 114.602 65.3757C114.869 65.3306 115.42 65.5252 115.824 65.8087C116.318 66.1547 116.719 66.2345 117.044 66.0521C117.382 65.8617 117.724 65.9647 118.185 66.3952C118.721 66.8974 118.959 66.9477 119.481 66.6687C119.832 66.4811 120.119 66.1952 120.119 66.0338C120.119 65.8721 120.322 65.7399 120.569 65.7399C121.523 65.7399 122.002 64.3659 121.897 61.9383L121.796 59.6275L137.673 59.7146L153.55 59.8017L154.613 60.6114C156.106 61.7498 156.398 63.03 156.398 68.4353V73.0396L136.963 73.12C126.274 73.1645 110.394 73.1322 101.674 73.0485L85.821 72.8962L85.7372 68.103C85.6625 63.8357 85.7189 63.1807 86.253 62.1353C86.8966 60.8749 87.8566 60.0956 89.0444 59.8696C89.4514 59.792 94.8549 59.7451 101.052 59.7652L112.32 59.8017L112.58 60.8675ZM114.609 60.8006C115.028 62.0686 114.956 63.6268 114.479 63.6281C114.311 63.6284 114.086 62.9401 113.979 62.0984C113.872 61.2567 113.704 60.3614 113.607 60.109C113.505 59.8434 113.6 59.6495 113.83 59.6495C114.049 59.6495 114.4 60.1675 114.609 60.8006ZM116.844 61.444C116.933 62.4313 116.898 63.6987 116.765 64.2609L116.523 65.2831L116.485 64.3696C116.465 63.8671 116.268 62.5997 116.049 61.5527C115.683 59.8109 115.693 59.6495 116.165 59.6495C116.573 59.6495 116.715 60.0255 116.844 61.444ZM118.9 62.396C119.327 65.3684 119.168 66.3761 118.646 64.0054C118.115 61.5914 117.928 59.6495 118.227 59.6495C118.381 59.6495 118.684 60.8855 118.9 62.396ZM120.841 60.3346C121.107 61.3234 121.066 63.0851 120.768 63.5556C120.486 63.999 120.128 62.3813 120.122 60.6392C120.118 59.506 120.568 59.3157 120.841 60.3346ZM165.72 60.6784C166.546 61.0914 168.25 61.9319 169.508 62.5464C173.281 64.3891 177.337 67.5509 180.559 71.1604C181.188 71.8648 181.703 72.5777 181.703 72.7449C181.703 72.9416 177.507 73.0485 169.794 73.0485H157.885L157.98 67.483C158.09 61.0344 158.112 60.9836 161.276 59.8322C162.122 59.5246 164.206 59.9217 165.72 60.6784ZM192.151 60.7829C193.337 62.8131 195.727 70.5821 195.727 72.4111C195.727 73.0558 195.678 73.0603 189.578 72.9787L183.43 72.8962L181.576 70.6537C179.412 68.0375 176.451 65.4439 172.99 63.1335C170.685 61.5957 170.535 61.4297 170.662 60.5655L170.798 59.6415L181.187 59.7216L191.577 59.8017L192.151 60.7829ZM226.405 60.4808C228.098 61.6876 228.348 62.6715 228.348 68.146V73.0485H212.716H197.085L196.726 71.4497C196.529 70.5706 196.276 69.3028 196.166 68.6329C195.94 67.2641 194.337 62.3701 193.702 61.1112C193.474 60.6586 193.288 60.1404 193.288 59.9589C193.288 59.725 197.974 59.654 209.37 59.7152C225.451 59.8017 225.452 59.8017 226.405 60.4808ZM19.6641 62.7806C18.0175 63.7048 17.2941 65.1467 17.5038 67.085C17.6986 68.8872 18.7023 70.0803 20.5464 70.7033C21.6205 71.066 21.9827 71.0642 23.0991 70.6899C24.6771 70.1607 25.9061 68.6667 26.1289 67.0073C26.3576 65.3041 25.1088 63.231 23.4564 62.5704C21.84 61.9245 21.1171 61.9644 19.6641 62.7806ZM91.7062 62.6265C89.6578 63.5805 88.7231 65.6318 89.323 67.8567C89.8935 69.9722 92.6156 71.5234 94.5827 70.8535C96.8344 70.0864 97.8362 68.7702 97.8527 66.557C97.8609 65.4269 97.6771 64.8461 97.0512 64.0267C95.5765 62.0954 93.829 61.6377 91.7062 62.6265ZM163.548 62.5141C160.14 63.9965 159.94 68.8668 163.222 70.4226C164.6 71.0758 165.694 71.0462 167.208 70.3142C168.773 69.5574 169.508 68.3418 169.508 66.5101C169.508 64.8282 168.525 63.3254 166.931 62.5698C165.704 61.9879 164.792 61.973 163.548 62.5141ZM23.4781 63.8108C25.6567 65.0962 25.4869 68.2044 23.1701 69.4432C21.3729 70.4043 19.5227 69.713 18.7538 67.7933C18.3431 66.7686 18.3419 66.5149 18.7425 65.5575C19.6297 63.4365 21.6077 62.7072 23.4781 63.8108ZM92.9922 65.0547C92.9989 66.7869 93.0135 66.8155 94.3635 67.7193C95.1141 68.2218 95.7284 68.7425 95.7287 68.8768C95.7299 69.3278 93.6415 69.9972 92.7757 69.8236C91.6614 69.6001 91.0837 69.1347 90.619 68.0857C89.8712 66.3977 90.3081 64.6957 91.7129 63.8251C92.1614 63.5474 92.6309 63.3162 92.7568 63.312C92.8827 63.3074 92.9885 64.0918 92.9922 65.0547ZM65.5849 70.4731C67.2114 71.0459 69.0818 72.7784 69.8449 74.4188C70.5363 75.9046 70.6013 78.737 69.9787 80.2258C69.733 80.8129 68.7809 82.0797 67.8626 83.0414C66.0977 84.8895 65.5471 85.9216 65.5471 87.3809V88.2746H63.1082H60.6692V87.3809C60.6692 86.0242 60.1384 84.8911 58.9125 83.6306L57.8016 82.4887H58.9778C60.1348 82.4887 60.1448 82.4786 59.6021 81.8796C59.2302 81.4691 58.6632 81.2706 57.8626 81.2706C56.7952 81.2706 56.63 81.1634 56.233 80.2145C55.7297 79.0113 55.6486 76.2033 56.0843 75.0592C56.3647 74.3223 56.4964 74.286 59.2092 74.202C61.4841 74.1317 62.0411 74.0245 62.0411 73.6575C62.0411 73.2985 61.5356 73.1819 59.6784 73.1118C58.379 73.0628 57.3156 72.9258 57.3156 72.8073C57.3156 72.4093 59.4515 70.8845 60.5997 70.4634C62.1311 69.9012 63.9715 69.9049 65.5849 70.4731ZM137.577 74.2328L156.406 74.2666L156.326 85.1533L156.246 96.04H153.35H150.454L150.372 88.6553L150.29 81.2706H121.061C93.7394 81.2706 91.8181 81.3047 91.6306 81.7925C91.3971 82.4004 91.4422 98.6817 91.6812 99.9226L91.8422 100.76H112.23H132.619V104.412V108.064L112.116 108.143L91.6135 108.221L91.5327 117.489C91.4882 122.586 91.5623 126.867 91.6974 127.002C91.8983 127.203 110.992 127.294 145.336 127.259L150.279 127.254L150.366 124.284L150.454 121.315H153.35H156.246L156.325 138.606L156.404 155.895L155.346 157.851C154.314 159.76 153.602 162.036 153.228 164.618C152.939 166.612 152.038 167.798 149.157 169.978C147.69 171.088 146.203 172.241 145.853 172.54C144.989 173.278 144.4 174.873 144.614 175.897C145.524 180.259 145.53 180.437 144.83 181.882C142.78 186.112 135.446 190.021 128.808 190.422C125.396 190.628 123.78 190.42 119.357 189.205C117.006 188.559 115.61 188.364 113.259 188.353C110.517 188.341 110.058 188.421 108.686 189.158C107.848 189.608 105.79 191.286 104.113 192.887L101.065 195.798L94.8147 195.709C88.7779 195.622 88.5298 195.594 87.5396 194.888C85.5335 193.459 85.6686 197.917 85.6686 133.205V74.2724L100.531 74.1935C108.705 74.1499 116.148 74.1335 117.07 74.1566C117.992 74.1801 127.22 74.2142 137.577 74.2328ZM55.044 76.9311C55.0358 78.3968 55.1465 79.9715 55.2901 80.4307L55.5513 81.2657L37.6076 81.3443L19.6641 81.4229L19.5837 91.0915L19.5032 100.76H48.8948C75.4149 100.76 78.3044 100.713 78.4715 100.278C78.5733 100.013 78.6565 95.7927 78.6565 90.899C78.6565 84.3847 78.5587 81.9037 78.2907 81.636C78.0471 81.3927 76.7115 81.2706 74.2945 81.2706H70.6638L70.9256 80.4332C71.0695 79.9727 71.1805 78.3941 71.172 76.9254L71.1567 74.255L77.7267 74.3369L84.2966 74.4188V133.344C84.2966 165.753 84.1927 192.64 84.0656 193.093C83.9384 193.546 83.332 194.3 82.7177 194.768L81.6007 195.619L64.7395 195.705L47.8784 195.791L47.7954 190.223L47.7122 184.656L46.2641 184.563L44.8159 184.47L44.8193 181.975C44.8211 180.602 44.9077 178.966 45.0117 178.337C45.1964 177.221 45.2303 177.195 46.5327 177.195H47.8646V174.98V172.765L50.2274 172.394C56.5943 171.396 61.2856 166.809 62.2451 160.645C63.5725 152.116 57.1269 144.611 48.4744 144.611C43.2831 144.611 38.7716 147.193 36.1994 151.635C33.7516 155.862 33.9037 161.812 36.5668 166.004L37.4856 167.451H25.6024H13.7192V120.859V74.2666H34.3891H55.0593L55.044 76.9311ZM183.415 75.104C184.276 76.386 185.668 79.3783 185.868 80.3774L186.047 81.2706H174.881C168.74 81.2706 163.687 81.305 163.653 81.3467C163.619 81.3884 163.516 84.7117 163.425 88.7314L163.258 96.04H160.514H157.77L157.692 85.5339C157.649 79.7556 157.679 74.8567 157.759 74.6472C157.871 74.3512 160.679 74.2666 170.378 74.2666H182.852L183.415 75.104ZM195.93 74.6472C196.062 74.8567 196.222 76.4363 196.288 78.1575L196.406 81.2873L191.923 81.2027L187.439 81.1183L186.448 78.6258C185.903 77.2552 185.23 75.7868 184.952 75.3632C184.674 74.9393 184.447 74.5193 184.447 74.4295C184.447 74.34 186.976 74.2666 190.069 74.2666C194.236 74.2666 195.753 74.3652 195.93 74.6472ZM228.348 79.2671V84.2677L226.627 87.2453C224.036 91.727 223.669 92.9801 223.87 96.649C223.962 98.3239 224.189 100.094 224.375 100.583C224.878 101.903 224.826 106.782 224.291 108.543C223.851 109.992 222.575 113.144 221.289 115.962C219.697 119.447 219.366 121.119 219.41 125.426C219.433 127.688 219.67 130.966 219.937 132.712C220.203 134.459 220.421 136.48 220.421 137.204V138.521H205.635H190.849V146.286V154.052H192.221H193.593V157.249V160.447H194.812H196.032V162.426V164.405H193.44H190.849V173.998V183.59H191.938C192.791 183.59 193.006 183.701 192.929 184.098C192.875 184.377 192.419 184.738 191.916 184.901C191.413 185.063 189.748 186.057 188.216 187.11C183.257 190.518 181.768 190.975 177.884 190.286C173.776 189.557 173.129 189.57 171.194 190.425C170.205 190.862 168.112 192.262 166.542 193.536L163.687 195.853L162.026 195.682C160.352 195.51 158.785 194.683 158.259 193.694C158.105 193.406 157.94 177.511 157.879 157.249L157.77 121.315L175.453 121.259C185.178 121.228 193.858 121.194 194.74 121.183L196.345 121.163L196.265 111.495L196.184 101.826L193.924 101.674C192.069 101.549 191.746 101.454 192.122 101.144C192.47 100.857 196.172 100.747 207.492 100.687L222.403 100.608V91.0153V81.4229L209.827 81.3434L197.251 81.2639V77.7652V74.2666H212.799H228.348V79.2671ZM57.5123 83.6072C59.4113 85.1612 59.7546 85.9694 59.7546 88.8837C59.7546 91.7075 60.2131 92.8958 61.5737 93.5986C62.7115 94.1863 63.5124 94.1824 64.6715 93.5837C65.9303 92.9332 66.4617 91.4916 66.4617 88.7259C66.4617 86.0778 66.7892 85.2766 68.5437 83.6306L69.761 82.4887H73.5991H77.4371V91.1676V99.8465H51.2182H24.9994V91.1676V82.4887H40.5728H56.1458L57.5123 83.6072ZM149.316 89.2643L149.234 96.04L141.003 96.1922L132.771 96.3445L132.68 98.0955L132.588 99.8465H114.768H96.9488V91.1676V82.4887H123.173H149.398L149.316 89.2643ZM186.532 83.0216C186.978 83.8782 187.258 86.9819 187.035 88.5983L186.83 90.0893L180.688 90.1718C175.119 90.2464 174.537 90.3037 174.444 90.7869C174.349 91.2803 174.797 91.3199 180.461 91.3199C183.827 91.3199 186.58 91.4225 186.579 91.5482C186.577 92.0041 185.362 93.756 185.048 93.756C184.87 93.756 183.998 94.3042 183.11 94.9741L181.495 96.1922H175.41C171.084 96.1922 169.219 96.0865 168.959 95.8268C168.563 95.4315 168.411 83.0773 168.797 82.6918C168.908 82.58 172.882 82.4887 177.627 82.4887C185.535 82.4887 186.278 82.5331 186.532 83.0216ZM195.719 83.4784C195.715 84.0229 195.57 85.0162 195.397 85.6862C195.224 86.3561 194.915 87.5894 194.712 88.4269L194.342 89.9495L191.224 90.0363L188.105 90.1231L188.101 86.9911C188.099 85.2684 188.014 83.5509 187.913 83.1739C187.729 82.4887 187.73 82.4887 191.728 82.4887H195.727L195.719 83.4784ZM221.336 91.1676V99.8465H206.969H192.602L192.792 99.0091C193.645 95.2485 193.891 94.3322 194.401 92.9947L194.983 91.4721L205.035 91.3199C213.698 91.1886 215.086 91.1046 215.086 90.7108C215.086 90.3158 213.751 90.2431 205.22 90.1736L195.353 90.0932L195.559 89.4123C196.194 87.3212 196.946 84.1493 196.946 83.5667C196.946 83.197 197.038 82.8033 197.15 82.6918C197.261 82.58 202.749 82.4887 209.344 82.4887H221.336V91.1676ZM36.6607 87.2849C31.7257 87.3601 30.7919 87.4457 30.7919 87.8245C30.7919 88.2101 31.9272 88.2746 38.7185 88.2746C45.561 88.2746 46.6452 88.2122 46.6452 87.8178C46.6452 87.5666 46.4738 87.3489 46.2641 87.3343C44.6964 87.2237 41.7002 87.2085 36.6607 87.2849ZM109.906 88.9309C108.941 89.4577 108.534 90.1392 108.534 91.2258C108.534 93.3014 110.86 94.2006 112.358 92.7039C113.424 91.6396 113.352 90.3618 112.169 89.3676C111.136 88.4994 110.81 88.4366 109.906 88.9309ZM120.701 89.4738C119.894 90.2793 119.773 90.5854 119.932 91.4082C120.494 94.3164 124.387 94.0496 124.387 91.103C124.387 89.7604 123.826 89.0573 122.489 88.7241C121.813 88.5554 121.481 88.6946 120.701 89.4738ZM132.771 88.9309C131.229 89.7732 130.903 91.6618 132.105 92.7895C132.993 93.6227 134.133 93.6342 135.169 92.8202C136.335 91.9042 136.277 90.4121 135.034 89.3676C134.001 88.4994 133.676 88.4366 132.771 88.9309ZM111.579 90.2501C112.165 90.955 111.712 92.2334 110.876 92.2334C109.543 92.2334 108.985 90.977 109.982 90.2211C110.683 89.6894 111.12 89.6974 111.579 90.2501ZM122.994 90.2757C123.59 90.8722 123.604 91.4408 123.032 91.9149C122.33 92.4968 121.201 92.1859 121.086 91.3792C120.895 90.0323 122.069 89.3529 122.994 90.2757ZM134.444 90.2501C135.051 90.9806 134.575 92.2334 133.691 92.2334C132.616 92.2334 132.094 91.1536 132.794 90.381C133.429 89.6803 133.937 89.6398 134.444 90.2501ZM193.593 91.5741C193.593 91.7139 193.307 92.6978 192.958 93.7603C192.609 94.8228 192.212 96.2501 192.077 96.9319C191.841 98.1171 191.829 98.1281 191.797 97.1819C191.764 96.2017 191.749 96.1922 190.239 96.1922C188.751 96.1922 188.715 96.1706 188.715 95.2857C188.715 94.6547 188.483 94.2274 187.953 93.8803C187.098 93.3212 187.068 93.2042 187.488 92.101C187.778 91.3378 187.852 91.3199 190.689 91.3199C192.286 91.3199 193.593 91.4343 193.593 91.5741ZM30.8498 94.289C30.9456 94.7844 31.7102 94.8219 41.7672 94.8219C51.8243 94.8219 52.5889 94.7844 52.6846 94.289C52.781 93.7892 52.0984 93.756 41.7672 93.756C31.4361 93.756 30.7535 93.7892 30.8498 94.289ZM187.321 95.0771C187.706 95.6943 187.149 96.18 186.047 96.1877C185.221 96.1931 185.203 96.0668 185.895 95.1179C186.486 94.306 186.834 94.296 187.321 95.0771ZM136.815 105.709L136.897 114.159H135.52H134.143V105.615V97.0708L135.439 97.1646L136.734 97.258L136.815 105.709ZM182.617 97.3403C182.617 97.4691 181.314 98.8711 179.721 100.456C177.454 102.711 176.825 103.52 176.825 104.18C176.825 104.886 176.954 105.023 177.619 105.023C178.056 105.023 178.948 104.601 179.601 104.084C180.756 103.17 181.187 103.049 180.396 103.86C179.713 104.56 178.654 106.446 178.654 106.963C178.654 107.53 178.537 107.497 180.916 107.613C182.709 107.7 182.731 107.691 184.346 106.166C185.24 105.322 185.971 104.702 185.971 104.789C185.971 104.876 185.765 105.532 185.512 106.246C185.042 107.576 185.263 108.373 186.101 108.373C186.555 108.373 188.01 106.828 189.329 104.947C189.886 104.152 190.388 103.501 190.443 103.501C190.499 103.501 190.544 105.968 190.544 108.984V114.467L164.401 114.389L138.259 114.311L138.178 105.709L138.097 97.1058H160.357C172.6 97.1058 182.617 97.2112 182.617 97.3403ZM190.544 99.3532C190.544 101.559 190.518 101.633 189.149 103.388C188.382 104.371 187.637 105.38 187.495 105.63C187.353 105.88 187.166 106.014 187.079 105.928C186.993 105.841 187.268 104.952 187.689 103.951C189.224 100.309 188.6 100.248 185.19 103.71C182.505 106.434 182.135 106.577 184.106 104.126C185.559 102.32 186.581 100.799 186.581 100.442C186.581 99.7463 185.711 100.266 184.394 101.75C181.192 105.355 180.198 106.378 180.188 106.078C180.183 105.904 181.276 104.504 182.617 102.966C184.91 100.339 185.526 99.2374 184.702 99.2374C184.507 99.2374 183.055 100.208 181.475 101.394C179.895 102.58 178.553 103.502 178.493 103.442C178.433 103.381 179.77 101.931 181.464 100.219L184.544 97.1058H187.544H190.544V99.3532ZM143.139 102.279C143.034 102.449 143.033 102.724 143.137 102.892C143.258 103.087 148.076 103.196 156.591 103.196C169.062 103.196 169.851 103.164 169.755 102.663C169.659 102.167 168.747 102.125 156.491 102.051C147.868 101.999 143.263 102.078 143.139 102.279ZM19.5117 117.661V127.254H48.8991C75.4152 127.254 78.3044 127.206 78.4715 126.772C78.7117 126.146 78.7053 109.652 78.4645 108.754L78.2806 108.069H48.896H19.5117V117.661ZM143.06 109.058C143.157 109.349 145.349 109.458 152.35 109.519C160.302 109.589 161.536 109.539 161.69 109.139C161.846 108.733 160.73 108.678 152.4 108.678C144.962 108.678 142.961 108.759 143.06 109.058ZM77.3657 117.737L77.2846 126.188L51.142 126.266L24.9994 126.343V117.815V109.287H51.2231H77.4468L77.3657 117.737ZM132.619 112.119C132.619 113.915 132.752 115.085 132.984 115.316C133.197 115.529 134.215 115.682 135.412 115.682H137.473L137.561 118.346L137.649 121.011L143.441 121.163L149.234 121.315L149.322 123.828L149.411 126.34H123.18H96.9488V117.813V109.287H114.784H132.619V112.119ZM41.191 111.835C40.7917 112.315 40.9923 123.556 41.4075 123.971C41.5435 124.107 45.7613 124.181 50.7807 124.137L59.907 124.056L59.9936 118.422C60.0415 115.324 60.0046 112.481 59.9116 112.104L59.743 111.418H50.6399C43.3111 111.418 41.4697 111.5 41.191 111.835ZM49.4024 113.474C49.2305 113.767 48.6942 114.46 48.2113 115.014L47.3333 116.022L45.8458 114.752C45.0278 114.054 44.2281 113.361 44.069 113.212C43.8986 113.052 45.001 112.941 46.7473 112.941C49.4899 112.941 49.6914 112.981 49.4024 113.474ZM56.5184 113.601C56.0346 113.964 55.2178 114.652 54.7029 115.13L53.7669 115.999L52.8737 114.997C50.8957 112.779 50.7859 112.941 54.2706 112.941H57.3979L56.5184 113.601ZM51.8322 115.428L52.8532 116.697L51.8185 117.56C51.2496 118.034 50.7051 118.422 50.6085 118.422C50.5118 118.422 49.9673 118.034 49.3984 117.56L48.3637 116.697L49.3847 115.428C49.9463 114.73 50.4969 114.159 50.6085 114.159C50.7201 114.159 51.2707 114.73 51.8322 115.428ZM45.3318 115.789L46.6098 116.804L45.6418 117.994C45.1095 118.648 44.4906 119.374 44.2666 119.607C44.0425 119.84 43.6471 120.354 43.3879 120.749C43.1288 121.144 42.7953 121.468 42.6468 121.468C42.4983 121.468 42.377 120.234 42.377 118.727C42.377 116.392 42.4672 115.896 42.9867 115.377C43.7788 114.586 43.8282 114.595 45.3318 115.789ZM58.3653 116.359C58.6976 116.832 58.84 117.756 58.84 119.441C58.84 122.249 58.8912 122.258 56.2019 118.975L54.4532 116.839L55.1986 116.267C56.244 115.465 57.7696 115.509 58.3653 116.359ZM102.436 117.661C102.436 118.058 103.825 118.118 113.107 118.118C122.388 118.118 123.777 118.058 123.777 117.661C123.777 117.264 122.388 117.204 113.107 117.204C103.825 117.204 102.436 117.264 102.436 117.661ZM48.6796 118.506C50.6307 120.074 50.4249 120.049 51.9484 118.888C52.7234 118.297 53.4593 117.814 53.5837 117.815C53.7078 117.816 54.809 118.981 56.0306 120.404L58.2516 122.99H50.5957H42.9395L44.4114 121.248C47.7823 117.257 47.4171 117.491 48.6796 118.506ZM91.6462 135.044C91.5443 135.309 91.4611 139.54 91.4611 144.447C91.4611 151.695 91.5407 153.434 91.8852 153.72C92.1983 153.979 98.6893 154.069 116.656 154.063L141.003 154.054L139.242 155.043C136.932 156.339 135.522 157.492 134.467 158.945C133.779 159.895 133.648 160.325 133.808 161.108C133.993 162.009 134.232 162.176 136.874 163.245C138.45 163.883 139.849 164.405 139.984 164.405C140.118 164.405 140.773 163.815 141.44 163.092C142.196 162.272 143.773 161.192 145.638 160.216C149.372 158.261 150.524 157.411 151.591 155.825C152.302 154.767 152.435 154.251 152.435 152.547C152.435 150.205 151.767 147.365 150.878 145.928C150.334 145.05 150.263 144.464 150.304 141.19C150.329 139.136 150.339 136.804 150.325 136.009L150.301 134.562H121.066C94.6891 134.562 91.8132 134.609 91.6462 135.044ZM149.386 139.885V143.989L147.97 143.092C144.717 141.031 140.674 140.675 137.68 142.184C135.02 143.525 132.234 146.911 132.55 148.418C132.741 149.327 132.955 149.472 135.972 150.734L138.75 151.896L140.053 150.537C141.168 149.375 141.53 149.179 142.57 149.179C144.799 149.179 145.649 150.736 144.273 152.301C143.834 152.799 142.307 152.834 120.377 152.834H96.9488V144.307V135.78H123.168H149.386V139.885ZM235.055 146.286V153.138H232.769C230.939 153.138 230.482 153.229 230.482 153.595C230.482 153.975 231.092 154.052 234.14 154.052H237.799V156.792V159.533H234.616C231.767 159.533 230.643 159.795 231.182 160.334C231.266 160.417 233.337 160.484 235.786 160.483L240.238 160.479V162.442V164.405H234.293C227.596 164.405 226.888 164.673 230.406 165.876C231.537 166.263 233.047 166.787 233.759 167.04L235.055 167.501V175.079V182.656L231.853 182.743C227.005 182.873 227.704 183.423 232.845 183.522L237.189 183.607V186.025V188.443L233.784 188.529C231.711 188.581 230.337 188.742 230.271 188.941C230.212 189.12 231.264 189.761 232.609 190.365L235.055 191.464V193.77V196.076H213.409H191.763V192.749V189.422L196.852 189.392C199.651 189.375 201.997 189.306 202.065 189.237C202.134 189.168 202.1 188.966 201.989 188.788C201.863 188.585 200.303 188.463 197.825 188.463H193.862L193.956 187.168C194.05 185.879 194.059 185.87 196.486 184.656C197.826 183.986 198.89 183.301 198.85 183.134C198.809 182.959 197.284 182.792 195.271 182.743L191.763 182.658V173.995V165.333L196.997 165.25C200.758 165.19 202.266 165.063 202.354 164.798C202.442 164.533 201.725 164.405 199.788 164.341L197.099 164.253V162.426V160.599L202.586 160.519C208.275 160.437 209.004 160.356 208.685 159.84C208.567 159.648 205.868 159.533 201.501 159.533H194.507V156.792V154.052H199.08C202.942 154.052 203.653 153.981 203.653 153.595C203.653 153.204 202.79 153.138 197.708 153.138H191.763V146.286V139.434H213.409H235.055V146.286ZM102.436 141.109C102.436 141.361 102.608 141.571 102.818 141.577C103.227 141.587 133.838 141.584 134.219 141.573C134.345 141.569 134.448 141.361 134.448 141.109C134.448 140.709 132.466 140.653 118.442 140.653C104.418 140.653 102.436 140.709 102.436 141.109ZM145.957 142.937C146.837 143.337 147.557 143.727 147.557 143.804C147.557 143.881 146.837 143.661 145.957 143.315C142.324 141.888 138.311 142.728 135.169 145.574C134.07 146.568 133.883 146.669 134.409 145.982C137.284 142.229 141.788 141.042 145.957 142.937ZM148.319 144.307C148.423 144.474 148.439 144.611 148.355 144.611C148.272 144.611 148.118 144.474 148.015 144.307C147.911 144.139 147.895 144.002 147.979 144.002C148.062 144.002 148.216 144.139 148.319 144.307ZM197.694 144.939C197.58 145.123 197.614 145.4 197.769 145.555C197.935 145.721 202.639 145.804 209.16 145.757C218.796 145.688 220.269 145.617 220.269 145.22C220.269 144.824 218.787 144.753 209.085 144.684C201.205 144.628 197.84 144.703 197.694 144.939ZM54.0355 146.656C59.743 149.339 62.7115 155.69 61.1164 161.806C60.4488 164.366 59.2601 166.371 57.4046 168.065C52.16 172.853 44.5711 172.842 39.4868 168.038C36.3884 165.112 35.2278 162.22 35.4174 157.903C35.5198 155.575 35.6967 154.783 36.4933 153.083C38.0557 149.751 40.177 147.778 43.8684 146.225C45.3665 145.595 45.9744 145.517 48.7793 145.598C51.6334 145.68 52.2033 145.795 54.0355 146.656ZM102.305 147.318C101.799 148.136 103.232 148.245 113.732 148.18C123.744 148.118 124.539 148.074 124.634 147.58C124.73 147.081 124.043 147.048 113.604 147.048C107.46 147.048 102.397 147.168 102.305 147.318ZM209.522 148.646C209.619 148.937 211.404 149.027 217.067 149.027C222.731 149.027 224.516 148.937 224.613 148.646C224.713 148.348 223.07 148.266 217.068 148.266C211.065 148.266 209.423 148.348 209.522 148.646ZM46.8683 148.819L46.0241 148.916L46.1061 155.976L46.1879 163.035H48.4744H50.7609L50.8426 155.984L50.9243 148.932L49.3183 148.827C48.4351 148.77 47.3323 148.766 46.8683 148.819ZM49.9987 155.879V162.274H48.4744H46.95V155.879V149.484H48.4744H49.9987V155.879ZM141.597 154.919C141.438 155.06 140.073 155.955 138.564 156.906C136.42 158.257 136.069 158.41 136.961 157.607C137.589 157.042 138.892 156.151 139.857 155.628C141.665 154.648 142.099 154.471 141.597 154.919ZM133.324 163.633C131.9 164.252 131.292 165.63 131.546 167.662C131.782 169.553 133.009 171.238 134.334 171.491C135.613 171.736 137.109 171.163 137.829 170.153C138.402 169.348 138.466 168.971 138.298 167.368C138.067 165.162 137.507 164.201 136.111 163.618C134.852 163.094 134.563 163.095 133.324 163.633ZM46.7839 164.848C45.3086 166.322 46.3452 168.987 48.3844 168.964C49.3594 168.953 50.0487 168.503 50.5588 167.547C51.1069 166.518 50.989 165.957 50.0222 164.991C48.9225 163.893 47.7906 163.843 46.7839 164.848ZM136.143 164.544C136.687 164.951 136.645 164.973 135.604 164.81C134.769 164.68 134.19 164.802 133.386 165.275C132.307 165.912 132.301 165.912 132.631 165.296C133.233 164.172 135.109 163.77 136.143 164.544ZM49.5305 165.611C50.2829 166.442 49.9375 167.682 48.8799 167.948C47.8195 168.213 47.1262 167.744 47 166.673C46.8226 165.169 48.4936 164.467 49.5305 165.611ZM39.4588 169.259C41.0499 170.634 42.8379 171.537 45.1208 172.117L46.7976 172.543L46.8878 174.565L46.9778 176.586H40.5618C32.3903 176.586 32.2211 176.809 39.1758 178.413C40.6849 178.762 42.4343 179.183 43.0629 179.351L44.2062 179.655V182.07V184.485L40.624 184.57C35.1592 184.701 36.1256 185.25 41.9959 185.349L46.95 185.433V190.602V195.771H25.4567H3.96331V191.988V188.204L7.63365 186.771C9.71256 185.959 11.2549 185.189 11.1909 184.997C11.115 184.769 9.40129 184.629 5.99619 184.573L0.914611 184.489V180.842V177.195H11.1278C17.7334 177.195 21.3409 177.088 21.3409 176.891C21.3409 176.605 16.1298 176.492 7.24067 176.585L3.96331 176.619V172.342V168.065L21.0431 168.084L38.1231 168.104L39.4588 169.259ZM196.641 171.866C196.641 172.235 197.125 172.323 199.161 172.323H201.68L205.922 176.569L210.165 180.815L211.284 179.929L212.403 179.044L212.805 179.794C213.46 181.018 214.089 180.668 215.44 178.327C219.243 171.737 218.77 172.323 220.283 172.323C221.287 172.323 221.641 172.204 221.641 171.866C221.641 171.468 220.049 171.409 209.141 171.409C198.233 171.409 196.641 171.468 196.641 171.866ZM217.068 172.547C217.068 172.89 210.565 179.327 210.218 179.327C209.864 179.327 203.349 172.906 203.349 172.557C203.349 172.428 206.435 172.323 210.208 172.323C213.981 172.323 217.068 172.423 217.068 172.547ZM24.161 173.008C24.2579 173.299 26.0426 173.389 31.7065 173.389C37.3704 173.389 39.1551 173.299 39.2521 173.008C39.3514 172.71 37.7091 172.628 31.7065 172.628C25.7039 172.628 24.0616 172.71 24.161 173.008ZM8.74338 189.575C8.62966 189.689 8.53637 189.896 8.53637 190.036C8.53637 190.176 13.5554 190.29 19.6894 190.29C28.4764 190.29 30.8157 190.209 30.7157 189.909C30.6181 189.616 28.0962 189.51 19.7696 189.449C13.8192 189.405 8.8574 189.462 8.74338 189.575ZM210.5 192.138C210.016 192.92 211.14 193.038 218.308 192.96C224.689 192.89 225.756 192.813 225.756 192.422C225.756 192.03 224.681 191.953 218.232 191.883C212.989 191.826 210.645 191.904 210.5 192.138ZM24.161 192.498C24.2585 192.79 26.3167 192.878 33.0781 192.878C39.8395 192.878 41.898 192.79 41.9959 192.498C42.0956 192.199 40.1786 192.117 33.0784 192.117C25.9783 192.117 24.0613 192.199 24.161 192.498Z" fill="black"/>
</svg>
