<svg width="186" height="186" viewBox="0 0 186 186" fill="none" xmlns="http://www.w3.org/2000/svg">
<path fill-rule="evenodd" clip-rule="evenodd" d="M24.6738 0.302495C22.0353 1.13492 19.6899 3.21366 18.4815 5.79048L17.7988 7.2467L17.7185 31.3674C17.6343 56.6042 17.6543 57.1477 18.7456 59.2985C19.4237 60.6346 21.0767 62.3867 22.3767 63.147C24.4937 64.3849 25.8245 64.5976 31.4488 64.5976C34.317 64.5976 36.6637 64.6477 36.6637 64.709C36.6637 64.8432 35.356 67.0487 34.1928 68.8762C33.267 70.3309 31.9064 71.3835 29.5798 72.4456C27.251 73.5085 25.4277 74.8582 23.275 77.1122C19.4476 81.1203 18.3991 85.0584 20.1001 89.0391C20.2438 89.3753 20.1712 89.4882 19.8118 89.4882C19.1224 89.4882 16.8055 90.3706 15.5427 91.114C14.1631 91.9264 11.9229 94.1928 11.1434 95.5646C10.8113 96.1491 10.2692 97.3593 9.93892 98.254C9.34063 99.8735 9.33755 99.9463 9.20511 114.892L9.07216 129.903L7.64176 132.341C4.27302 138.082 1.53593 145.638 0.723329 151.44C0.583703 152.438 0.337561 154.097 0.176375 155.128C-0.120074 157.024 -0.115456 157.08 0.764138 162.193C1.55441 166.787 4.3685 172.163 7.57425 175.203C11.5995 179.02 15.073 180.878 21.2638 182.528C23.4077 183.1 33.4942 183.327 38.4745 182.916C45.1463 182.365 49.911 181.891 52.8337 181.486C54.4571 181.261 56.8248 180.965 58.0953 180.828C59.3658 180.69 61.3262 180.463 62.452 180.324C65.494 179.946 69.2118 180.009 70.8177 180.466C72.5687 180.965 75.9303 182.358 76.4672 182.809C76.69 182.996 76.9608 183.149 77.0691 183.149C77.1774 183.149 78.1881 183.784 79.3152 184.56C81.6981 186.201 82.8325 186.406 83.6664 185.346C83.937 185.003 84.4526 184.685 84.8127 184.64C85.2234 184.59 85.6276 184.273 85.8979 183.79C86.1348 183.367 86.4297 182.977 86.5531 182.924C87.2441 182.628 87.7741 181.779 87.6288 181.201C87.5341 180.823 87.637 180.33 87.8917 179.942C88.1216 179.591 88.2502 179.148 88.1771 178.957C88.0179 178.543 95.2749 178.274 106.711 178.271C112.86 178.269 113.997 178.207 115.351 177.795C118.322 176.892 120.975 174.822 122.77 172.008C124.38 169.483 124.493 168.736 124.63 159.733L124.753 151.586L125.946 151.584C128.311 151.58 135.166 150.517 137.662 149.767C138.085 149.64 139.24 149.301 140.228 149.013C147.127 147.003 153.837 143.378 160.89 137.848C164.534 134.992 167.613 133.932 175.777 132.723C177.259 132.503 178.835 132.267 179.28 132.197C180.299 132.038 181.423 131.169 181.423 130.541C181.423 129.543 180.542 129.292 177.48 129.419C174.799 129.529 174.677 129.514 175.52 129.164C176.417 128.793 178.3 128.226 180.299 127.728C181.411 127.45 182.707 126.591 182.707 126.13C182.707 125.98 182.458 125.642 182.154 125.379C181.541 124.847 179.739 124.751 177.958 125.155C175.594 125.692 174.267 126.066 174.087 126.247C173.981 126.353 173.602 126.439 173.244 126.439C172.202 126.439 172.85 126.048 175.961 124.799C177.544 124.164 179.075 123.518 179.361 123.364C179.978 123.035 180.052 122.023 179.494 121.56C179.046 121.188 176.187 121.33 175.378 121.765C175.103 121.912 174.243 122.289 173.467 122.602C172.69 122.915 171.438 123.453 170.683 123.797C169.929 124.141 169.265 124.377 169.207 124.319C169.072 124.184 171.434 122.576 173.082 121.681C174.719 120.791 175.263 120.312 175.263 119.757C175.263 119.238 174.218 118.484 173.497 118.484C172.412 118.484 169.685 119.939 164.355 123.361C162.168 124.765 161.711 124.712 160.205 122.875C158.173 120.398 156.344 119.473 155.381 120.436C154.884 120.933 155.026 121.516 156.028 123.106C157.093 124.795 157.612 126.172 157.44 126.855C157.036 128.464 153.591 130.819 149.922 131.995C148.107 132.577 143.61 132.64 141.127 132.119C137.34 131.325 131.167 129.169 126.433 126.987L124.7 126.188V115.408C124.7 109.479 124.787 104.628 124.893 104.629C124.999 104.629 125.432 104.841 125.855 105.099C126.891 105.73 129.841 106.911 131.887 107.512C133.134 107.879 134.688 108.037 138.047 108.137C144.936 108.341 149.249 107.474 154.858 104.756L157.168 103.637L166.408 103.533C175.641 103.43 175.65 103.429 177.381 102.759C179.489 101.944 181.594 100.579 182.797 99.2476C183.947 97.9751 185.462 94.8279 185.797 93.0147C185.967 92.0955 186.032 81.235 185.985 61.8704C185.916 33.5044 185.89 32.08 185.431 30.8907C184.267 27.8782 182.38 25.5982 179.706 23.9739C176.867 22.2503 176.831 22.247 159.438 22.1851L143.822 22.1297L143.907 20.5632C143.954 19.7017 143.849 18.5165 143.673 17.9294C143.254 16.5309 141.893 15.1439 140.726 14.9251C139.751 14.7421 137.694 14.8909 136.956 15.1978C136.655 15.323 136.507 15.2679 136.507 15.0308C136.507 14.3782 134.97 12.8045 134.03 12.4945C132.759 12.0752 130.787 12.3508 129.45 13.1342L128.349 13.7793L127.913 12.4375C127.4 10.8581 126.962 10.3152 125.673 9.65724C124.307 8.96005 123.087 9.04858 121.188 9.98313C118.481 11.3157 116.355 14.1422 115.453 17.6063C115.039 19.1972 115.071 20.0117 115.615 21.809C115.742 22.2288 115.313 22.258 109.053 22.258C101.572 22.258 101.695 22.2906 102.488 20.5239C102.724 19.9958 103.019 19.3327 103.143 19.0505C103.266 18.7682 103.648 17.9022 103.991 17.1259C104.334 16.3497 105.092 15.1119 105.674 14.3749C106.863 12.8717 107.078 11.6829 106.241 11.2354C105.306 10.7352 104.202 11.2397 102.258 13.0544C101.22 14.0236 100.258 14.8165 100.12 14.8165C99.4391 14.8165 99.5122 10.3544 100.227 8.30494C100.417 7.75812 100.574 6.80535 100.574 6.18796C100.574 5.1192 100.538 5.06557 99.8253 5.06557C99.2571 5.06557 98.8251 5.35169 98.0287 6.25647C97.452 6.91132 96.9717 7.63315 96.9612 7.86024C96.9253 8.63673 96.0562 10.3149 95.8568 9.99236C95.6242 9.61592 94.2498 9.58334 94.0237 9.949C93.9284 10.1032 93.4898 10.144 92.9716 10.0468C92.0376 9.8715 91.0769 10.4211 91.0769 11.1307C91.0769 11.3177 90.7591 11.5464 90.3711 11.6385C89.1568 11.9269 88.7669 12.4619 88.7669 13.8401C88.7669 15.0354 89.0161 15.6859 90.2707 17.7675C90.6993 18.4782 91.9285 22.0281 91.7827 22.1336C91.7473 22.159 91.0256 22.3142 90.1786 22.4784C85.9228 23.3037 82.2486 26.5361 80.6144 30.8925L79.955 32.6505L79.8608 43.941C79.7818 53.4097 79.6979 55.5008 79.3398 56.8995C78.711 59.357 78.7115 67.9009 79.3406 69.312C79.734 70.1947 79.7836 71.3615 79.7836 79.7686V89.2316H65.516H51.2485L51.4287 88.141C51.528 87.5413 51.6248 87.0505 51.6438 87.0505C51.9993 87.0505 52.7623 86.3245 52.9446 85.8129C53.2518 84.9512 52.5498 84.0995 51.5326 84.0995C50.9652 84.0995 50.6741 83.8575 50.0676 82.8806C49.6515 82.2101 48.6631 81.0308 47.871 80.2594C46.4401 78.8656 46.4342 78.8538 46.925 78.3316C48.1167 77.0634 48.5712 75.4109 48.5853 72.2957C48.5966 69.7838 48.5063 69.0967 47.9776 67.6769C47.6359 66.7595 47.1413 65.6972 46.8783 65.3161L46.4001 64.623L55.071 64.5463C63.4193 64.4721 63.7882 64.448 64.985 63.8958C66.6664 63.1201 68.5298 61.5168 69.4918 60.018C71.1134 57.4915 71.051 58.5928 71.0541 32.3764C71.0572 6.3391 71.0978 7.10916 69.5996 4.73686C68.6099 3.16927 66.7147 1.45952 65.1536 0.725377L63.742 0.0618002L44.7487 0.0115061C29.55 -0.0287807 25.5393 0.029469 24.6738 0.302495ZM64.897 1.44002C67.0591 2.57857 68.1589 3.68787 69.1869 5.76713L70.1586 7.73271L70.2297 29.7501C70.2687 41.8597 70.211 51.7636 70.1014 51.7587C69.9918 51.7541 68.1117 49.1355 65.9236 45.9397C60.3799 37.8431 59.8484 37.141 59.2598 37.141C58.3194 37.141 58.208 37.8872 58.4482 42.5798C58.5732 45.0221 58.6025 47.0942 58.5137 47.1842C58.4246 47.2746 57.6998 47.534 56.9026 47.7611C56.1054 47.9882 54.8426 48.6325 54.0965 49.1932L52.7395 50.2124L51.6959 49.3649C51.1217 48.8989 49.5548 47.6274 48.2137 46.5394C46.8726 45.4517 45.503 44.493 45.1704 44.4091C44.53 44.2477 44.1181 44.6316 44.1109 45.3957C44.1088 45.6313 45.4802 49.875 47.1583 54.8259L50.2095 63.8278H47.7999C46.4748 63.8278 45.3904 63.7329 45.3904 63.6166C45.3904 63.0744 43.1053 62.2882 41.5291 62.2882C39.9236 62.2882 37.6904 63.048 37.6904 63.594C37.6904 63.728 35.1127 63.8278 31.6531 63.8278H25.6158L23.9903 63.0911C21.7997 62.0981 20.4109 60.7794 19.4055 58.7383C18.6232 57.15 18.5629 56.8351 18.4782 53.8903C18.4284 52.1583 18.4284 50.741 18.4782 50.7413C18.528 50.7413 19.163 50.9671 19.8891 51.2429C23.2973 52.538 28.1483 52.3232 31.3769 50.7344C33.7598 49.5614 36.9435 45.9592 39.5918 41.4391C40.217 40.3717 40.4121 40.2203 41.161 40.2203C41.7793 40.2203 42.1638 40.033 42.5483 39.5441C43.183 38.7374 43.1974 38.5262 42.6841 37.5421C42.3109 36.8267 42.3337 36.694 43.132 34.9204L43.9728 33.0523L45.8313 33.2094C47.9894 33.3918 51.5504 32.8806 51.5504 32.3885C51.5504 32.214 51.2644 31.4467 50.9151 30.6839C50.5658 29.9212 50.1117 28.204 49.9059 26.8682C49.7 25.5323 49.3535 23.2544 49.1356 21.8064C48.6367 18.4898 47.8426 16.7644 46.0834 15.1745C42.5534 11.9846 36.5164 10.9687 31.7301 12.7591C30.4529 13.2369 30.1377 13.2661 29.1696 12.9967C28.5623 12.8278 27.1414 12.6805 26.0121 12.6695C24.3078 12.6528 23.5661 12.7914 21.6488 13.484C20.3783 13.9428 19.1252 14.389 18.8642 14.4757C18.4148 14.6246 18.3945 14.4432 18.4815 11.0683C18.5642 7.86614 18.6422 7.35653 19.2474 6.06119C20.2079 4.00657 21.5435 2.65196 23.6459 1.6004L25.4644 0.690735L44.6032 0.761301L63.742 0.831611L64.897 1.44002ZM56.9403 3.7125C50.246 6.04657 49.6659 15.0949 56.0212 18.0533C57.8507 18.9052 60.6548 18.906 62.4586 18.0554C68.8388 15.0472 68.2 5.94367 61.4505 3.69146C59.9017 3.17466 58.4636 3.18133 56.9403 3.7125ZM61.1553 4.40508C62.8701 4.9211 63.9943 5.75378 65.07 7.30418C65.8813 8.47378 66.0153 8.88435 66.1205 10.5223C66.2198 12.0726 66.1413 12.6305 65.669 13.7283C64.7417 15.8837 64.5813 15.9071 62.8162 14.1424L61.2816 12.6082L61.6761 11.852C62.166 10.9128 62.2251 8.30879 61.7528 8.46429C61.5634 8.52664 61.3794 9.20972 61.3036 10.1325C61.1689 11.7737 61.0036 12.156 60.5501 11.8756C60.3627 11.7598 60.3573 11.5538 60.5329 11.2253C60.9723 10.4047 60.8537 7.10044 60.3655 6.56132C59.3366 5.42456 57.7103 6.29599 57.7103 7.98418V9.02676L56.1703 7.50331C55.3233 6.66524 54.6303 5.91082 54.6303 5.8264C54.6303 5.74224 55.1124 5.40249 55.7017 5.07122C57.5797 4.01606 59.2031 3.81771 61.1553 4.40508ZM99.6968 6.41274C98.85 9.3488 98.5448 13.699 99.1074 14.8165C99.6955 15.9846 100.587 15.796 102.374 14.1255C104.112 12.4999 104.826 12.017 105.514 12.0029C106.186 11.9893 106.068 12.3896 104.964 13.8653C102.436 17.2468 100.063 23.8741 98.2374 32.6505C97.973 33.9207 97.7553 35.2083 97.7535 35.5121C97.7512 35.8937 97.512 36.1475 96.9802 36.3327C96.3514 36.5519 96.2102 36.7448 96.2102 37.3843C96.2102 37.8151 96.1363 38.1674 96.0459 38.1674C95.9556 38.1674 94.9951 37.8734 93.9118 37.5141C91.6665 36.7697 90.7371 36.908 90.3023 38.0512C90.1467 38.4605 90.0502 45.1009 90.0502 55.402C90.0502 70.2971 90.0951 72.1846 90.4686 72.9714C90.9878 74.0653 91.0302 74.0873 95.3588 75.5307C99.8251 77.0201 99.8007 77.0065 99.8169 78.0142C99.8282 78.7188 100.59 81.8588 101.215 83.7788C101.387 84.3066 101.323 84.3561 100.464 84.3561C98.0556 84.3561 93.9377 83.2194 90.9496 81.7298C85.718 79.1219 82.0243 74.7743 80.2327 69.1159C79.733 67.5378 79.6573 66.7557 79.6709 63.3146C79.6845 59.8697 79.7808 58.9593 80.3901 56.5146C82.0145 49.9971 82.8998 47.7906 87.9566 37.6548C92.6569 28.2333 93.3176 26.4299 93.0404 23.7781C92.9523 22.9357 92.6893 21.6429 92.4559 20.9052C91.9359 19.2614 91.947 19.3114 92.1035 19.2871C92.1741 19.276 92.786 18.9576 93.4634 18.5796C94.2711 18.1287 94.9015 17.944 95.2952 18.0428C96.3757 18.314 96.7235 17.3961 96.7235 14.2733C96.7235 10.0942 98.1293 6.20874 99.7694 5.85566C99.821 5.84462 99.7884 6.09532 99.6968 6.41274ZM56.427 9.89254C56.427 11.4337 57.0522 12.6364 58.1151 13.1409C58.861 13.4945 58.9937 13.6893 58.9937 14.4283C58.9937 15.2453 58.9359 15.3035 58.0509 15.3785C57.5325 15.4221 57.0594 15.6071 56.9996 15.789C56.9149 16.0464 57.3969 16.1036 59.1613 16.0456C61.4428 15.971 62.3062 15.5304 60.4695 15.3785C59.5614 15.3033 59.507 15.2494 59.507 14.4252C59.507 13.7975 59.6602 13.4696 60.0516 13.2602C60.537 13.0005 60.7729 13.144 62.2246 14.5825C64.0492 16.3905 64.0477 16.5902 62.202 17.4074C58.9108 18.8647 55.5022 17.8737 53.4048 14.8494C52.4715 13.5042 52.4487 13.4149 52.4487 11.1286C52.4487 9.0029 52.5172 8.67188 53.1902 7.54821L53.9317 6.30984L55.1793 7.53846C56.2953 8.6375 56.427 8.88589 56.427 9.89254ZM57.7103 10.5664C57.7103 11.2479 58.1621 11.6965 59.1007 11.9474C59.9854 12.184 59.8206 12.6462 58.871 12.5912C58.4352 12.5661 57.9113 12.3056 57.6518 11.9854C57.1729 11.3939 57.0032 9.53433 57.4537 9.81274C57.5948 9.89999 57.7103 10.239 57.7103 10.5664ZM95.6142 10.775C95.816 11.0919 95.75 16.8953 95.5424 17.1072C95.2567 17.3987 94.6707 16.0469 94.4035 14.4806C94.1412 12.9433 94.2203 11.2312 94.5804 10.6488C94.7682 10.3447 95.3884 10.4204 95.6142 10.775ZM93.4764 13.3359C93.555 14.5029 93.6951 15.8912 93.7878 16.4203C93.998 17.6202 93.4551 17.7454 92.806 16.6469C92.2668 15.7341 91.5902 13.1932 91.5902 12.0811C91.5902 11.1373 92.2155 10.6154 92.9046 10.9841C93.2324 11.1594 93.3676 11.7152 93.4764 13.3359ZM90.8266 13.1653C90.9642 13.5273 91.0769 14.0534 91.0769 14.3344C91.0769 14.6153 91.4234 15.5435 91.8469 16.3969C92.2704 17.2501 92.6169 17.9943 92.6169 18.0505C92.6169 18.354 92.017 18.0608 91.2358 17.3749C89.9291 16.2278 89.1116 13.5481 89.8449 12.815C90.3079 12.3521 90.5502 12.4383 90.8266 13.1653ZM39.6924 14.6921C41.4775 15.1126 42.3117 15.5011 43.4654 16.448C44.6034 17.382 44.0732 17.547 42.8291 16.6461C41.2483 15.5011 39.4206 14.9669 37.1129 14.9754C36.019 14.9792 35.1237 14.8968 35.1237 14.7924C35.1237 14.2214 37.4761 14.1696 39.6924 14.6921ZM46.3672 21.0325C46.8783 23.0532 46.9337 23.5087 46.6876 23.6609C46.5531 23.7438 46.3626 23.3758 46.2643 22.8426C46.166 22.3093 45.9378 21.4505 45.7574 20.9339C45.4443 20.0374 45.5054 19.5742 45.9042 19.8205C46.0064 19.8837 46.2148 20.4292 46.3672 21.0325ZM92.2044 23.4338C92.4449 24.0601 92.3887 26.0593 92.1259 26.2215C91.997 26.3013 91.8138 26.8271 91.7185 27.3901C91.6233 27.9531 91.4401 28.4789 91.3112 28.5587C91.1824 28.6382 91.0748 28.8987 91.072 29.1373C91.0676 29.5545 90.3998 30.9248 85.2195 41.1489C83.9236 43.7062 82.8636 45.8828 82.8636 45.9857C82.8636 46.0886 82.706 46.5368 82.5135 46.9815C81.9375 48.3118 81.3636 49.8057 81.1929 50.4203C80.7107 52.1547 80.5536 50.3882 80.5538 43.2354C80.5544 32.331 81.02 30.1594 84.062 26.8746C85.681 25.1261 86.691 24.4463 88.8755 23.6342C90.7484 22.9383 91.9857 22.8636 92.2044 23.4338ZM117.179 24.0635C118.554 25.3778 120.138 26.0942 121.684 26.1014C122.594 26.1055 122.903 26.2046 122.903 26.492C122.903 26.736 122.658 26.8769 122.233 26.8769C121.538 26.8769 119.567 27.8494 119.567 28.192C119.567 28.6569 120.111 28.6464 120.899 28.1666C122.14 27.4101 122.647 27.4825 122.647 28.4165C122.647 29.0534 122.543 29.1863 122.044 29.1863C121.712 29.1863 120.961 29.5335 120.375 29.9577C119.533 30.5676 119.31 30.8909 119.31 31.5011C119.31 32.4837 120.525 33.2897 122.009 33.291C123.02 33.292 123.049 33.3174 123.518 34.6391C124.066 36.1849 125.218 37.9617 126.049 38.5436C126.53 38.8806 126.569 39.0124 126.298 39.3891C124.754 41.5315 124.628 42.2236 125.534 43.5646C126.202 44.5523 127.208 44.9156 128.703 44.7085C129.433 44.6074 129.844 44.6716 130.049 44.9179C130.211 45.1132 130.806 45.4817 131.372 45.7365C132.624 46.3013 132.686 46.8722 131.566 47.5209C131.107 47.7865 128.768 49.2922 126.368 50.8668C120.984 54.3994 115.636 57.6693 115.242 57.6693C115.029 57.6693 114.947 56.1769 114.947 52.3127C114.947 49.3667 114.874 46.5912 114.785 46.145C114.511 44.7773 113.5 43.9877 111.018 43.2036C109.182 42.6234 108.812 42.4237 109.047 42.1402C109.207 41.948 109.3 41.4666 109.254 41.0704C109.182 40.4386 108.966 40.2752 107.503 39.7458C100.621 37.2539 99.352 36.8072 98.841 36.6951C98.5233 36.625 98.2635 36.5421 98.2635 36.5106C98.2635 36.3291 99.3603 31.2007 99.5828 30.341C100.176 28.0514 101.236 24.152 101.485 23.3486C101.561 23.1017 103.258 23.0283 108.843 23.0307L116.102 23.0335L117.179 24.0635ZM135.095 23.6106C136.36 24.3183 137.129 25.8015 137.491 28.23C137.899 30.9682 139.044 32.4478 140.866 32.5922L141.76 32.663L142.609 35.6076C143.076 37.2273 143.729 39.4184 144.06 40.4769C144.391 41.5354 144.915 43.2385 145.226 44.2618C145.598 45.4912 145.92 46.1222 146.174 46.1222C146.462 46.1222 146.518 45.9407 146.398 45.3944L146.238 44.6667L147.725 44.7871C149.14 44.9015 150.552 45.2636 150.338 45.4568C150.258 45.5297 140.091 52.6332 130.475 59.3355C127.268 61.5707 126.628 61.9918 126.552 61.9159C126.485 61.8492 127.108 59.4088 128.521 54.2052C129.754 49.6612 129.771 49.624 130.849 49.009C131.405 48.6913 131.939 48.4316 132.035 48.4316C132.131 48.4316 132.136 48.8866 132.047 49.4426C131.899 50.3705 132.191 51.0351 132.578 50.6484C132.716 50.5111 133.179 47.5971 133.542 44.5825C133.693 43.3306 133.804 43.1258 134.519 42.7696C135.562 42.2503 138.294 38.3163 138.3 37.3255C138.306 36.1854 137.579 36.1298 136.716 37.2044C136.311 37.7097 135.379 38.5082 134.644 38.9791C133.466 39.7353 133.114 39.8331 131.636 39.8146C128.493 39.7753 126.085 38.1333 124.616 35.0292C123.781 33.2645 123.767 32.9443 124.51 32.458C124.829 32.2491 125.248 31.7834 125.44 31.4229C125.754 30.8365 125.732 30.6839 125.228 29.9769C124.864 29.465 124.445 29.1863 124.041 29.1863C123.54 29.1863 123.417 29.0547 123.417 28.5207C123.417 28.0711 123.583 27.8117 123.93 27.7211C124.536 27.5625 124.625 26.8769 124.04 26.8769C123.063 26.8769 123.94 26.0132 125.598 25.3427C131.886 22.8002 133.214 22.558 135.095 23.6106ZM176.871 23.5203C180.73 24.8474 183.77 28.0431 184.841 31.8976C185.235 33.3153 185.273 36.0689 185.272 62.8183C185.271 83.0728 185.184 92.501 184.993 93.2089C184.43 95.2895 183.433 97.1863 182.904 97.1863C181.34 97.1863 179.808 94.9084 179.364 91.9259C178.759 87.8567 177.842 86.4644 175.284 85.7305C174.496 85.5044 173.768 85.2714 173.667 85.2124C173.565 85.1534 173.704 84.5034 173.975 83.7682C175.923 78.4953 176.195 73.0158 174.84 66.3939C172.665 55.77 165.287 48.0036 154.73 45.2264C153.812 44.9849 152.798 44.6842 152.475 44.5582C151.837 44.3085 147.509 43.7357 146.588 43.7789C145.925 43.8102 145.571 43.2572 145.344 41.8338C145.19 40.8703 145.226 40.7953 146.041 40.4073C148.471 39.2511 150.139 36.7174 149.722 34.817C149.475 33.6941 148.012 32.3256 146.841 32.1231C145.041 31.8121 143.147 31.1945 143.026 30.8791C142.96 30.7067 143.138 30.0531 143.422 29.4268C144.261 27.5779 143.983 25.7583 142.746 25.0037C142.304 24.734 142.322 24.4271 142.825 23.6604L143.239 23.0278H159.339C174.545 23.0278 175.519 23.0553 176.871 23.5203ZM32.1554 25.0827C34.4559 28.4486 38.9422 31.7542 42.3745 32.6122C43.1245 32.7996 43.2056 32.9535 42.8501 33.5145C42.6697 33.7995 42.4852 33.76 41.8687 33.3043C41.0935 32.7316 39.2964 32.1945 38.9237 32.4247C38.3985 32.7493 38.7589 33.292 39.4999 33.292C40.3579 33.292 41.5252 33.8103 42.026 34.4133C42.3104 34.7559 42.1818 35.3753 41.6887 36.0384C41.6674 36.0672 40.9739 35.7495 40.1475 35.3327C37.5857 34.0407 34.8658 34.4182 34.8681 36.0651C34.8696 37.1654 35.7639 38.3401 37.2307 39.1687C37.9776 39.5908 38.7617 40.0414 38.973 40.17C39.2897 40.3624 39.0548 40.8579 37.6388 42.9844C35.1861 46.6672 33.0342 49.0811 31.5199 49.8483C28.0888 51.5865 23.4783 51.7618 19.5313 50.3043L18.4405 49.9014V38.0314V26.1617L19.5313 26.4086C21.5856 26.8736 25.6294 25.8202 29.3488 23.8508C29.9134 23.5518 30.4994 23.3021 30.6508 23.2957C30.8025 23.2896 31.4796 24.0935 32.1554 25.0827ZM130.535 24.5964C129.425 24.8505 128.4 25.4604 128.198 25.986C127.952 26.6267 128.451 26.6198 129.332 25.9703C130.012 25.4686 130.499 25.3373 131.68 25.3373C132.499 25.3373 133.17 25.2287 133.17 25.0958C133.17 24.5595 131.817 24.3032 130.535 24.5964ZM26.9605 25.6621C26.5557 26.1494 26.8229 26.3637 27.8349 26.3637C29.0839 26.3637 29.8305 26.7301 30.9462 27.891C31.8374 28.8183 32.3004 28.9903 32.3004 28.3934C32.3004 28.2867 31.997 27.8389 31.6264 27.3986C30.4178 25.9624 27.586 24.9085 26.9605 25.6621ZM142.657 26.1556C143.236 26.7768 143.355 28.1389 142.873 28.621C142.635 28.8591 142.462 28.6554 142.103 27.7101C141.336 25.6906 141.581 25.0014 142.657 26.1556ZM130.446 27.2446C129.314 27.7375 128.55 28.648 128.55 29.5058C128.55 30.1298 128.723 30.3182 129.693 30.747C130.695 31.1901 130.985 31.215 132.039 30.9497C133.495 30.5833 134.967 29.3703 134.967 28.5369C134.967 27.125 132.404 26.3924 130.446 27.2446ZM133.798 28.1453C134.232 28.6236 134.223 28.6698 133.593 29.3C132.732 30.1612 132.321 30.1281 131.958 29.1678C131.71 28.5089 131.542 28.3932 130.94 28.4622C130.488 28.514 130.124 28.7606 129.965 29.1222C129.685 29.7606 129.32 29.892 129.32 29.3544C129.32 28.027 132.833 27.0786 133.798 28.1453ZM168.333 28.2138C166.199 29.0311 164.152 31.2307 163.469 33.4416C162.836 35.4906 162.81 36.6006 163.355 38.4343C165.578 45.9169 175.553 46.8119 179.113 39.8482C179.908 38.2942 180.012 37.8644 180.012 36.1351C180.012 34.4426 179.898 33.9486 179.168 32.4662C177.154 28.3765 172.589 26.5846 168.333 28.2138ZM23.9803 29.0131C23.6156 29.3777 23.3176 29.8835 23.3181 30.137C23.3222 32.0988 27.2739 34.6181 29.7237 34.2206C30.8076 34.0449 31.2738 33.4865 31.2738 32.3646C31.2738 30.6959 28.7027 28.8307 25.9538 28.5053C24.7791 28.3662 24.5748 28.4188 23.9803 29.0131ZM175.091 29.1822C177.73 30.5209 179.228 33.0251 179.236 36.1146C179.241 37.7115 179.119 38.2893 178.52 39.5079C177.765 41.0447 176.371 42.4309 174.787 43.219C173.471 43.8735 169.612 43.8735 168.296 43.219C166.776 42.4627 165.281 41.0242 164.548 39.6142C163.962 38.4879 163.862 37.9778 163.862 36.1146C163.862 34.253 163.963 33.741 164.546 32.6189C165.361 31.0493 167.192 29.3659 168.673 28.8243C170.338 28.2153 173.537 28.3937 175.091 29.1822ZM28.0967 29.8768L29.5074 30.5674L28.857 30.9081C28.0452 31.3336 27.6027 32.1293 27.8118 32.7885C28.0264 33.4644 27.7903 33.4239 26.1956 32.5093C24.6215 31.6069 23.7676 30.2653 24.3335 29.5835C24.8435 28.9692 26.5075 29.0988 28.0967 29.8768ZM124.552 30.5622C124.776 30.9281 124.692 31.1321 124.108 31.6397C123.185 32.4424 122.956 32.4277 122.856 31.5599C122.787 30.9548 122.645 30.8432 121.86 30.7775C121.073 30.7113 120.897 30.8016 120.607 31.419C120.389 31.8819 120.225 32.0138 120.145 31.7898C119.84 30.9438 122.367 29.6005 123.629 29.9377C123.985 30.0329 124.4 30.3141 124.552 30.5622ZM167.085 31.5874C165.661 33.1021 166.292 35.3569 168.902 38.0812C171.71 41.0122 174.259 41.9819 175.855 40.7268C177.142 39.7148 176.99 38.6419 175.422 37.6732C174.739 37.2511 174.407 37.1865 173.904 37.3779C173.55 37.5123 173.184 37.7451 173.091 37.8949C172.795 38.375 172.439 38.1957 171.013 36.8472C170.091 35.9758 169.617 35.3215 169.617 34.9227C169.617 34.5904 169.73 34.3184 169.868 34.3184C170.491 34.3184 170.435 33.0056 169.771 32.002C168.962 30.7806 167.984 30.6297 167.085 31.5874ZM126.088 32.1373C125.699 32.7316 125.699 32.826 126.088 33.4203C126.508 34.0615 127.359 34.2786 127.644 33.8172C127.727 33.683 127.484 33.4098 127.103 33.2104L126.411 32.8475L126.967 32.3713C127.659 31.779 127.675 31.4958 127.016 31.4958C126.737 31.4958 126.319 31.7844 126.088 32.1373ZM131.514 34.7097C131.135 35.2073 130.407 35.8134 129.898 36.0569C128.903 36.5326 128.5 37.141 129.181 37.141C130.427 37.141 132.657 35.264 132.657 34.2147C132.657 33.5622 132.258 33.7349 131.514 34.7097ZM33.3954 34.8958C33.257 35.0723 32.7242 35.9766 32.2108 36.9057L31.2776 38.5947L31.9172 39.1957C33.2026 40.403 32.5332 41.6744 30.7694 41.3765C29.6537 41.1879 29.3541 41.5387 30.2301 42.0075C31.0048 42.4219 31.9121 42.3221 32.6508 41.7412C33.4831 41.0868 33.5465 39.9662 32.8099 38.9319L32.2927 38.2059L33.1944 36.7112C34.0935 35.2201 34.2983 34.575 33.8717 34.575C33.748 34.575 33.5334 34.7195 33.3954 34.8958ZM39.1021 35.6299C39.5256 35.7613 40.1511 36.0833 40.4922 36.3458L41.1125 36.8228L40.5561 36.9994C39.8256 37.2311 39.435 37.9983 39.6369 38.8036C39.8338 39.5875 39.782 39.5916 38.3323 38.9103C37.1712 38.3648 35.6337 36.8726 35.6409 36.2981C35.655 35.1754 36.8768 34.9394 39.1021 35.6299ZM102.114 38.6794C108.997 41.1235 108.945 41.0963 108.128 41.7745C107.789 42.0553 106.942 41.8489 102.802 40.4787C97.8002 38.8233 96.9802 38.4258 96.9802 37.6573C96.9802 37.0061 97.2212 36.8903 97.9691 37.1834C98.3428 37.3296 100.208 38.003 102.114 38.6794ZM102.68 41.3706C109.181 43.5505 113.193 45.0252 113.524 45.3562C114.04 45.873 114.048 46.1137 114.036 60.0509C114.03 67.8442 113.938 74.548 113.833 74.9485C113.457 76.3839 112.7 74.7961 111.284 69.6014C110.923 68.2763 110.649 67.9335 109.954 67.9335C109.001 67.9335 108.695 68.9057 108.853 71.4307L108.992 73.6688L108.125 72.2767C107.649 71.5108 107.256 70.7384 107.253 70.5601C107.249 70.3817 107.139 70.0353 107.006 69.7903C106.874 69.5452 106.513 68.8082 106.204 68.1524C105.879 67.4634 105.366 66.8342 104.988 66.6618C104.383 66.3867 104.249 66.4536 103.243 67.5339C102.154 68.7035 101.421 70.2578 101.725 70.751C101.814 70.8949 101.711 71.0127 101.496 71.0127C100.435 71.0127 100.301 73.0158 101.226 75.0383C101.585 75.823 101.828 76.5153 101.767 76.5772C101.506 76.8376 91.948 73.443 91.3977 72.8947L90.8202 72.3191V55.5208C90.8202 46.2818 90.8903 38.54 90.976 38.3168C91.0617 38.0935 91.4085 37.9108 91.7468 37.9108C92.0851 37.9108 97.0051 39.4679 102.68 41.3706ZM23.2881 40.4279C22.6339 41.0124 22.457 41.3989 22.3544 42.4686C22.1364 44.7355 23.658 46.6354 25.6908 46.6354C26.6412 46.6354 27.9789 45.7952 28.3855 44.9431C28.7543 44.1699 28.7512 44.0465 28.347 43.4299C28.1052 43.0609 27.7348 42.6927 27.5244 42.6118C27.3137 42.531 26.7444 41.8443 26.259 41.0861C25.218 39.4589 24.5409 39.3088 23.2881 40.4279ZM156.013 46.5589C168.143 50.5552 174.75 60.366 174.75 74.3819C174.75 79.1181 173.942 82.4226 171.696 86.8701C169.514 91.1913 167.838 93.414 163.769 97.3788C161.093 99.9858 161.058 100.009 159.818 100.009C158.223 100.009 154.723 99.1103 153.062 98.2743C151.472 97.4742 149.265 95.9654 147.993 94.8086C147.065 93.9654 146.752 93.0265 147.287 92.6957C148.038 92.2315 146.885 89.3589 145.389 87.9681C145.021 87.6258 144.72 87.1911 144.72 87.0022C144.72 86.8131 145.212 86.0538 145.814 85.3148C148.218 82.361 150.114 77.6818 150.8 73.0099C151.226 70.1126 151.135 68.5763 150.55 68.7698C150.346 68.8367 150.183 69.8005 150.08 71.5465C149.809 76.1412 148.515 79.9112 145.862 83.835C143.286 87.644 139.868 90.1572 135.688 91.3152C131.512 92.4722 127.385 91.4091 122.979 88.0417C120.903 86.4554 118.25 83.4955 117.443 81.8653C116.919 80.8055 116.916 80.7444 117.341 78.5294C118.104 74.55 117.908 73.5439 115.931 71.2919L114.937 70.1598L115.006 64.5086L115.075 58.8577L117.77 57.2772C119.252 56.4079 122.255 54.5241 124.443 53.0908C126.632 51.6571 128.461 50.6017 128.509 50.7449C128.556 50.8881 128.418 51.6099 128.201 52.3487C127.984 53.0874 127.444 55.0199 127.001 56.6429C126.558 58.2659 126.033 60.1353 125.833 60.7968C125.359 62.3677 125.364 63.3146 125.847 63.3146C126.201 63.3146 127.89 62.1771 136.06 56.4358C137.929 55.1225 140.036 53.6537 140.742 53.1721C141.448 52.6904 144.22 50.7421 146.902 48.8424C152.453 44.9102 151.634 45.1158 156.013 46.5589ZM64.9516 51.1085C64.272 52.5999 60.8352 53.9039 60.0565 52.9658C59.6651 52.4944 59.9064 51.9417 60.9158 50.9976L61.6016 50.3561L62.1157 51.0618C62.9956 52.2696 64.6403 51.9101 64.6403 50.5101C64.6403 50.0195 64.7112 49.9394 64.9414 50.1696C65.1678 50.3959 65.1703 50.6284 64.9516 51.1085ZM55.8729 56.0494C54.9561 57.0314 53.4427 57.7091 52.3665 57.6195C51.5632 57.5528 51.4105 57.4407 51.344 56.8698C51.287 56.3768 51.4798 56.0189 52.0696 55.5226C53.0603 54.6891 53.183 54.6866 53.7084 55.4882C54.4016 56.5459 56.1141 56.1364 56.2001 54.8926C56.225 54.5318 56.2496 54.5385 56.3518 54.9337C56.4221 55.2072 56.2209 55.6763 55.8729 56.0494ZM105.479 68.8957C106.628 71.5134 107.623 73.4977 108.318 74.5538C108.717 75.1607 109.043 75.753 109.043 75.8697C109.043 75.9865 109.222 76.2297 109.439 76.4104C110.23 77.0663 110.405 76.3506 110.047 73.9236C109.863 72.6755 109.707 71.0871 109.699 70.3943C109.681 68.711 110.23 68.5262 110.472 70.1346C110.685 71.5542 111.924 75.16 112.501 76.0416C112.724 76.3806 113.142 76.658 113.431 76.658C114.365 76.658 114.722 75.9913 114.875 73.9621C114.956 72.9044 115.118 72.0391 115.237 72.0391C115.356 72.0391 115.77 72.5177 116.157 73.1022C116.942 74.2893 117.011 75.2446 116.498 77.8127C116.01 80.2517 116.234 81.9723 117.227 83.4151C118.21 84.8431 121.291 88.0345 122.775 89.1608C125.654 91.3465 128.953 92.5674 131.98 92.5674H134.125L136.133 94.2366C138.675 96.3493 140.596 97.6533 141.255 97.7126C142.433 97.8183 142.933 97.6664 143.312 97.088C143.677 96.5307 143.674 96.3793 143.276 95.3834C142.856 94.3339 142.858 94.2764 143.325 93.9354C143.661 93.6896 144.154 93.6313 144.922 93.7465C145.809 93.8794 146.328 94.1979 147.485 95.3185C150.49 98.2281 154.056 100.015 158.131 100.651C158.66 100.734 159.093 100.904 159.093 101.028C159.093 101.628 153.171 104.642 149.725 105.797C146.978 106.717 142.368 107.431 139.11 107.442C136.608 107.45 132.067 106.839 131.502 106.418C131.361 106.313 130.841 106.141 130.347 106.036C128.935 105.737 125.353 103.894 124.907 103.238C124.809 103.094 124.653 102.222 124.56 101.3C124.213 97.8663 123.093 95.4586 120.725 93.0622C118.862 91.1764 116.789 90.0596 113.92 89.3961C113.409 89.2778 112.981 88.6588 111.817 86.3515C110.59 83.9222 110.055 83.1662 108.491 81.6605C102.857 76.2338 102.016 75.1948 101.456 72.9655C101.319 72.4197 101.378 72.2957 101.775 72.2957C102.112 72.2957 102.48 72.7384 102.966 73.7278C103.834 75.4984 105.685 77.9849 105.992 77.795C106.364 77.5654 106.265 77.3039 105.358 76.1158C103.735 73.9916 102.884 72.0948 102.884 70.6068C102.884 69.3533 103.28 68.4785 103.491 69.2645C104.3 72.2665 106.972 77.1712 107.8 77.1712C108.229 77.1712 107.998 76.5687 106.876 74.7684C104.542 71.0227 103.514 67.6769 104.699 67.6769C104.833 67.6769 105.184 68.2252 105.479 68.8957ZM102.242 77.7999C102.923 78.0047 103.547 78.2805 103.63 78.4129C103.714 78.5451 104.73 79.4534 105.89 80.4314C108.514 82.6448 109.268 83.545 108.761 83.8606C108.18 84.2227 106.492 84.3931 104.333 84.3076L102.318 84.2278L101.613 82.0467C100.817 79.5853 100.425 77.4278 100.774 77.4278C100.901 77.4278 101.562 77.5954 102.242 77.7999ZM46.9676 80.5055C47.6231 81.0675 48.5974 82.1924 49.1323 83.0059C50.2657 84.729 50.4215 84.8601 51.3427 84.8655C52.4076 84.8714 52.5085 85.3887 51.5937 86.1523C51.0475 86.6083 50.7804 87.0597 50.7804 87.5265C50.7804 88.5018 50.1081 90.0014 49.6708 90.0014C49.4696 90.0014 48.8138 89.8282 48.2137 89.6165C45.529 88.6694 43.642 89.6747 44.4546 91.6193C44.9512 92.8079 46.2815 93.4078 48.1711 93.2954C49.4729 93.2179 49.6333 93.2639 49.7003 93.7324C49.7955 94.3975 48.8679 95.7673 47.6693 96.7313C46.3164 97.8196 42.8037 98.9748 40.8346 98.9792C39.5756 98.9818 39.12 99.0929 38.7171 99.4957C38.0628 100.15 38.0721 100.309 38.8051 100.998C39.1724 101.343 39.967 101.654 40.8466 101.797C42.4893 102.064 43.0052 102.296 43.7249 103.092C44.9171 104.409 47.0916 104.934 48.9575 104.355C49.1847 104.284 50.0424 105.275 51.2921 107.052C52.3789 108.597 53.4012 109.906 53.5642 109.961C54.0788 110.132 53.8847 109.415 53.0944 108.224L52.3306 107.073L52.903 106.849C53.2179 106.726 55.0261 106.52 56.9216 106.391C60.673 106.136 61.6401 106.301 63.9519 107.593C65.7691 108.608 66.4472 109.499 66.611 111.087C66.8061 112.976 66.1405 114.234 64.0207 115.98C60.8668 118.578 56.5902 120.327 50.267 121.603C46.7268 122.318 39.5522 122.377 36.7921 121.714C31.08 120.342 28.7743 118.334 29.4897 115.353C29.8618 113.802 30.611 113.267 34.4821 111.784C35.3291 111.46 36.1663 111.089 36.3429 110.959C36.5742 110.789 36.7744 111.001 37.0603 111.717C37.7102 113.346 38.012 113.856 38.2425 113.713C38.6041 113.49 38.5004 113.028 37.551 110.638C34.5378 103.051 34.3537 102.475 34.643 101.533C35.0134 100.326 34.5693 98.7326 33.5339 97.5535C33.0948 97.0536 31.6847 95.9546 30.4006 95.1114C28.0434 93.5638 27.1671 92.5407 27.1671 91.3357C27.1671 90.5339 27.5749 89.8192 28.2338 89.4666C28.7166 89.2085 28.9186 89.335 30.0887 90.6288C31.5948 92.2936 32.8081 92.7098 33.9585 91.9562C34.9682 91.2949 35.3458 90.2577 35.6173 87.3992C35.9628 83.7657 36.3334 82.2055 36.9992 81.5799C37.6711 80.9489 39.3161 80.5435 42.4092 80.2464C43.6633 80.126 44.8126 79.9043 44.963 79.7539C45.4045 79.3126 45.7081 79.4262 46.9676 80.5055ZM43.5937 81.03C42.1246 81.2048 40.3402 81.9694 39.7542 82.6756C39.3156 83.204 39.6364 83.5316 40.2052 83.136C41.2681 82.3967 42.9769 81.7901 43.9962 81.7901C45.0706 81.7901 45.6776 81.4237 45.2269 81.0472C45.105 80.9453 44.3701 80.9376 43.5937 81.03ZM43.2444 83.8409C41.7201 84.4362 41.0258 85.0328 41.0309 85.7431C41.0453 87.6948 44.3842 88.0409 46.7163 86.3322C47.9242 85.4474 47.8988 84.3479 46.6552 83.7051C45.6984 83.2104 44.7636 83.2476 43.2444 83.8409ZM44.877 84.818C44.877 85.072 45.0156 85.4184 45.185 85.5878C45.702 86.1046 45.0444 86.4682 43.5937 86.4682C42.0506 86.4682 41.5365 86.1339 42.0773 85.4823C42.4898 84.9856 43.7626 84.381 44.4279 84.3661C44.693 84.3602 44.877 84.5452 44.877 84.818ZM48.5371 90.5303C49.6256 90.841 49.8394 90.8312 50.5016 90.4402C51.1913 90.0327 53.4343 90.0014 81.8259 90.0014C115.273 90.0014 114.437 89.9665 117.385 91.4905C118.918 92.2829 121.281 94.592 122.25 96.2446C123.718 98.7488 123.748 99.0572 123.863 112.678C123.921 119.576 123.871 125.318 123.752 125.437C123.633 125.556 121.978 124.896 120.075 123.969C118.172 123.043 115.864 121.94 114.947 121.517C114.029 121.095 112.585 120.422 111.738 120.022C106.116 117.37 104.164 116.476 101.087 115.144C94.3807 112.24 86.7177 109.577 80.8102 108.097C77.6607 107.308 76.2593 107.021 71.4122 106.173C68.1381 105.6 59.477 105.114 57.197 105.375C55.9971 105.512 54.2068 105.683 53.2187 105.755L51.422 105.885L48.9403 102.207L46.4586 98.5288L47.7507 97.6918C50.0553 96.1989 51.3219 93.2692 49.9744 92.5482C49.6415 92.3701 48.9449 92.318 48.2073 92.4158C46.9648 92.5805 45.6868 92.2698 45.3354 91.7173C45.0305 91.2382 45.1014 90.315 45.4545 90.1607C45.8911 89.9701 47.0695 90.1115 48.5371 90.5303ZM21.3865 91.017C21.8182 91.8512 25.2157 95.2107 27.4043 96.9672C28.6722 97.9846 28.849 98.2574 29.3852 100.021C30.1537 102.548 30.8495 103.236 32.5614 103.163C33.7878 103.111 33.8127 103.125 34.1189 104.061C34.2901 104.584 34.8612 106.071 35.3881 107.365C36.3408 109.704 36.3537 110.273 35.4538 110.273C35.2685 110.273 34.9161 110.379 34.671 110.509C34.4259 110.639 33.1179 111.274 31.7642 111.92C23.8828 115.684 17.3596 120.378 12.3831 125.866L10.2272 128.245V114.044C10.2272 101.431 10.2751 99.7026 10.6573 98.5812C12.0192 94.5859 14.9806 91.647 18.6694 90.6298C20.5487 90.1117 20.9478 90.1687 21.3865 91.017ZM27.9243 91.0517C27.5814 91.6922 27.8252 92.9038 28.2674 92.7571C28.6352 92.6349 28.8139 90.5146 28.4566 90.5146C28.3218 90.5146 28.0824 90.7563 27.9243 91.0517ZM107.589 95.593C105.952 96.1776 104.628 97.1658 103.615 98.5599C102.316 100.346 102.03 101.243 102.007 103.601C101.988 105.496 102.079 105.974 102.704 107.246C105.76 113.468 114.559 113.713 117.907 107.67C118.616 106.391 118.668 106.108 118.668 103.601C118.668 101.275 118.587 100.755 118.073 99.7921C117.263 98.2743 115.577 96.6433 114.06 95.9089C112.341 95.077 109.432 94.9349 107.589 95.593ZM113.896 96.7013C114.986 97.2461 115.812 97.9025 116.498 98.7701C120.186 103.435 117.48 110.406 111.646 111.27C104.312 112.356 99.7047 103.632 104.772 98.2551C106.283 96.6518 108.001 95.9495 110.478 95.9228C112.024 95.9061 112.539 96.0234 113.896 96.7013ZM166.414 100.162C166.615 101.023 166.853 101.918 166.942 102.151C167.089 102.534 166.728 102.575 163.227 102.575C160.814 102.575 159.35 102.478 159.35 102.318C159.35 102.177 159.436 102.06 159.542 102.057C159.854 102.049 164.405 98.1255 165.042 97.3151L165.626 96.5733L165.837 97.5853C165.954 98.1421 166.214 99.3017 166.414 100.162ZM105.858 99.2589C104.523 100.845 105.346 103.28 108.136 106.002C111.252 109.041 114.002 109.643 115.353 107.582C115.887 106.767 115.637 106.062 114.582 105.41C113.578 104.79 112.57 104.732 112.123 105.269C111.616 105.88 111.293 105.741 109.869 104.299C108.427 102.839 108.308 102.493 108.94 101.592C109.441 100.875 109.27 100.072 108.42 99.155C107.568 98.2355 106.689 98.2712 105.858 99.2589ZM68.3242 107.557C70.1137 108.9 70.7813 109.91 70.9779 111.569C71.4029 115.156 67.2527 119.227 60.1487 122.189C55.234 124.239 47.8017 125.679 42.1718 125.672C37.6719 125.666 31.5466 124.391 29.0639 122.942C27.588 122.081 26.2051 120.676 25.7408 119.565C25.2054 118.283 25.3432 116.443 26.0023 116.073C26.2793 115.917 26.9435 115.529 27.4782 115.209L28.4504 114.629V116.056C28.4504 118.156 29.2646 119.383 31.5748 120.762C34.6063 122.571 40.5276 123.397 46.5952 122.856C48.4029 122.695 50.2863 122.457 50.7804 122.326C51.2744 122.196 52.8337 121.803 54.2453 121.452C58.71 120.343 62.0893 118.699 64.7702 116.331C66.5507 114.759 67.7203 112.881 67.7203 111.596C67.7203 109.944 66.4613 107.992 64.8726 107.182C64.3213 106.9 63.8703 106.615 63.8703 106.547C63.8703 106.479 64.5343 106.425 65.3461 106.427C66.689 106.429 66.9572 106.531 68.3242 107.557ZM75.5486 107.744C76.9603 108.036 78.404 108.334 78.7569 108.406C81.2746 108.917 90.8785 111.845 92.4885 112.593C92.7709 112.723 94.0414 113.225 95.3119 113.707C98.1642 114.79 104.378 117.469 108.145 119.24C109.698 119.97 111.395 120.763 111.916 121.001C112.978 121.488 113.155 121.765 113.904 124.13C116.589 132.594 117.123 133.79 118.672 134.804C119.497 135.345 121.386 135.347 122.582 134.808C123.115 134.568 123.838 133.952 124.19 133.439C124.718 132.668 124.825 132.215 124.81 130.82C124.8 129.892 124.611 128.643 124.391 128.043C124.17 127.443 124.068 126.952 124.164 126.952C124.26 126.952 125.604 127.511 127.15 128.193C131.997 130.332 136.34 131.861 140.1 132.753C143.005 133.442 148.685 133.379 150.728 132.636C152.521 131.983 152.42 131.996 152.42 132.433C152.42 132.976 153.939 135.723 154.693 136.543C155.066 136.949 155.917 137.718 156.583 138.251L157.794 139.22L156.968 139.835C152.81 142.925 144.558 147.023 139.972 148.274C131.969 150.457 125.609 151.117 117.502 150.606C114.84 150.438 112.374 150.191 112.022 150.057C111.552 149.878 111.334 149.554 111.204 148.839C110.742 146.293 109.039 144.487 105.194 142.466C103.711 141.687 102.307 140.904 102.073 140.726C101.359 140.182 100.64 138.513 99.7881 135.42C99.3413 133.797 98.7674 132.065 98.513 131.571C97.8914 130.364 96.4587 129.042 94.2647 127.651C93.1045 126.915 92.0907 126.012 91.4606 125.155C90.4945 123.838 89.253 123.031 88.5877 123.286C88.0403 123.497 88.2071 124.836 88.9219 125.968C90.1321 127.885 94.1569 136.13 94.1569 136.693C94.1569 136.843 94.269 137.167 94.4058 137.413C94.7875 138.095 96.4669 143.296 96.4669 143.796C96.4669 144.038 96.5762 144.591 96.7097 145.025C99.146 152.935 98.5926 166.214 95.4281 175.771L94.8547 177.503H91.2006C88.2397 177.503 87.4848 177.429 87.2218 177.112C86.8427 176.656 86.8314 176.67 87.9977 176.127C88.4923 175.897 89.5315 175.188 90.3069 174.552C91.4652 173.602 91.821 173.109 92.2986 171.793C93.5134 168.444 93.9218 166.025 93.8445 162.636L93.7719 159.461L92.4885 159.021C90.3315 158.283 89.3462 157.525 87.7087 155.346C86.8445 154.195 86.0562 153.222 85.9572 153.184C85.8584 153.145 84.9195 153.678 83.8712 154.368C77.2036 158.76 69.0321 161.251 60.277 161.563L55.7853 161.722L55.723 162.62C55.6239 164.042 55.0793 166.234 54.8441 166.156C54.7263 166.116 54.0236 165.281 53.2826 164.299C51.3815 161.78 50.2375 161.226 47.0718 161.292C45.0328 161.335 44.6024 161.269 44.039 160.826C43.4184 160.337 43.3776 160.157 43.2955 157.531C43.2131 154.891 43.1702 154.704 42.4387 153.784C40.3097 151.107 40.0004 150.502 40.0004 149.011C40.0004 147.435 40.7391 145.985 42.276 144.546C43.103 143.771 43.3265 143.114 42.7595 143.124C41.9472 143.138 37.9232 147.671 36.6134 150.047C35.9189 151.307 34.8671 154.174 34.8671 154.808C34.8671 155.026 34.4916 155.364 34.0329 155.559C31.7473 156.527 26.9518 159.388 26.2046 160.228C25.1084 161.461 25.0442 162.84 26.0467 163.628C26.9263 164.32 27.6848 164.299 29.8244 163.523C31.1434 163.045 31.7026 162.951 32.0689 163.147C32.6728 163.47 32.681 163.376 31.9306 164.697C31.3315 165.751 31.3228 165.831 31.728 166.518C32.5953 167.985 34.404 167.972 38.7201 166.467L40.9049 165.706L42.815 166.483C43.8655 166.91 45.1345 167.36 45.6352 167.482C46.1357 167.605 47.4116 167.93 48.4704 168.205C51.7061 169.047 60.0067 170.318 62.2646 170.318H63.0097L62.3824 172.179C61.837 173.797 61.7759 174.323 61.914 176.22C62.0015 177.42 62.1399 178.644 62.2217 178.941C62.3557 179.427 62.2359 179.496 61.0028 179.645C60.2508 179.736 58.3071 179.985 56.6837 180.2C51.7221 180.856 47.476 181.327 43.9787 181.609C42.1435 181.758 39.2956 181.992 37.6501 182.129C29.658 182.796 22.7114 182.295 18.0555 180.714C13.8348 179.282 10.7246 177.26 7.58657 173.91C3.05847 169.075 0.712806 162.316 1.1304 155.307C1.6096 147.262 4.84538 137.924 9.6571 130.701C12.7091 126.12 17.0822 121.825 22.1503 118.433L24.4721 116.878L24.6007 118.259C24.94 121.9 28.4301 124.365 35.5087 125.963C37.577 126.43 46.8754 126.427 49.497 125.959C58.2919 124.388 64.5969 121.721 68.7277 117.825C72.2517 114.502 72.7977 110.911 70.2028 108.125C69.5922 107.47 69.1289 106.897 69.1733 106.853C69.3252 106.701 72.983 107.212 75.5486 107.744ZM174.178 119.814C174.122 119.981 173.458 120.452 172.701 120.861C170.908 121.83 168.586 123.416 167.989 124.08C167.683 124.421 167.576 124.793 167.686 125.138C167.894 125.794 168.379 125.701 171.285 124.442C174.381 123.102 177.356 122.077 178.149 122.077C179.502 122.077 178.849 122.73 176.611 123.614C172.909 125.077 171.296 125.977 171.203 126.633C171.046 127.738 171.639 127.698 177.525 126.209C178.699 125.912 180.056 125.669 180.541 125.669C181.863 125.669 181.665 126.322 180.204 126.78C179.534 126.991 177.81 127.522 176.375 127.962C174.939 128.401 173.496 128.989 173.167 129.268C172.579 129.765 172.577 129.782 173.066 130.16C173.619 130.587 174.363 130.61 177.573 130.305C179.883 130.084 180.397 130.149 180.397 130.66C180.397 131.065 178.93 131.495 176.803 131.713C172.001 132.206 167.101 133.361 164.28 134.666L162.659 135.416L161.582 134.868C160.175 134.15 157.81 131.716 157.198 130.356L156.714 129.28L157.519 128.364C158.811 126.892 158.512 124.925 156.618 122.438C155.91 121.507 155.848 121.05 156.432 121.05C157.142 121.05 158.398 122.006 159.607 123.465C160.242 124.232 161.064 124.992 161.434 125.153C162.307 125.535 163.098 125.207 166.432 123.084C170.245 120.655 172.461 119.525 173.424 119.517C173.971 119.513 174.243 119.62 174.178 119.814ZM163.446 127.378C163.734 127.916 163.97 128.791 163.97 129.322C163.97 130.01 164.081 130.288 164.355 130.288C164.567 130.288 164.74 130.122 164.74 129.918C164.74 129.315 165.233 129.19 165.897 129.625C166.681 130.138 167.05 130.141 167.05 129.636C167.05 129.419 166.588 129.043 166.024 128.802C165.357 128.517 164.831 128.049 164.52 127.466C164.239 126.939 163.809 126.533 163.481 126.484L162.922 126.401L163.446 127.378ZM156.774 131.338C157.736 132.903 159.625 134.758 160.959 135.448L161.925 135.948L160.364 137.248C159.136 138.269 158.671 138.514 158.189 138.392C156.814 138.048 153.649 134.186 153.297 132.425C153.146 131.671 153.211 131.571 154.171 131.081C154.742 130.79 155.281 130.435 155.369 130.292C155.669 129.807 155.967 130.028 156.774 131.338ZM99.822 148.349C100.916 148.692 102.757 149.186 105.194 149.789C108.486 150.605 114.471 151.333 119.249 151.498C123.649 151.65 123.681 151.655 123.834 152.263C123.918 152.6 123.93 156.137 123.86 160.122C123.72 168.044 123.585 168.936 122.151 171.443C121.18 173.138 120.022 174.335 118.217 175.507C115.353 177.366 115.576 177.333 105.134 177.443L95.7058 177.542L96.1021 176.432C98.8687 168.681 99.7933 157.463 98.377 148.828C98.2214 147.879 98.2692 147.863 99.822 148.349ZM88.9327 157.973C89.4768 158.425 90.6439 159.142 91.526 159.566L93.1302 160.337V162.605C93.1302 165.089 92.6161 168.239 91.7878 170.832C91.2275 172.586 90.4686 173.505 88.4268 174.903C86.7015 176.084 86.2944 176.125 85.1792 175.229C84.6428 174.798 83.4403 174.026 82.5071 173.513C81.5738 173 80.8102 172.526 80.8102 172.459C80.8102 172.393 81.1678 172.037 81.6046 171.67C83.756 169.86 82.5699 168.338 79.8529 169.421C77.558 170.337 75.5953 170.549 72.926 170.171C71.5451 169.975 69.318 169.815 67.977 169.814C66.6359 169.814 63.5751 169.624 61.1753 169.394C57.2514 169.016 56.7486 168.912 56.1824 168.369C55.5756 167.787 55.5646 167.717 55.8783 166.412C56.0571 165.667 56.2828 164.481 56.3795 163.775L56.5553 162.492L61.047 162.328C64.7461 162.194 66.1274 162.028 68.8753 161.389C74.9711 159.97 79.8031 158.015 84.121 155.218L85.7631 154.154L86.8534 155.652C87.453 156.476 88.3888 157.52 88.9327 157.973ZM81.8369 170.027C81.8369 170.41 80.4989 171.605 79.9027 171.755C79.2287 171.924 76.8933 171.197 77.4736 170.999C80.7607 169.876 81.8369 169.637 81.8369 170.027ZM66.718 171.096C65.9152 174.013 65.7986 176.297 66.3348 178.607L66.5019 179.326L64.8811 179.248L63.2602 179.171L62.9286 177.888C62.4928 176.202 62.5043 175.366 62.9943 173.197C63.5384 170.788 63.9465 170.371 65.5676 170.567C66.5034 170.68 66.7955 170.814 66.718 171.096ZM70.8544 170.837C73.8533 171.135 75.6859 171.573 78.6191 172.694C82.5384 174.192 87.2269 177.594 87.2269 178.94C87.2269 179.722 86.7921 179.723 85.9577 178.943C84.8355 177.894 80.2535 174.937 79.7495 174.937C78.8352 174.937 79.2839 175.381 81.9011 177.067C83.3479 177.998 85.0229 179.241 85.6227 179.829C87.7567 181.92 86.4972 182.69 84.1064 180.757C82.3089 179.304 78.5177 176.99 77.9335 176.99C77.0288 176.99 77.5088 177.461 79.8478 178.869C83.3045 180.949 85.1736 182.497 85.1736 183.281C85.1736 184.308 84.3212 184.074 82.0086 182.41C78.5411 179.915 76.4433 178.687 76.1505 178.98C75.8543 179.276 75.9546 179.357 79.3986 181.593C82.2822 183.465 83.167 184.268 82.9547 184.821C82.7137 185.448 81.7905 185.116 79.4117 183.544C75.7082 181.098 72.1809 179.655 69.1599 179.352C67.0129 179.137 67.0152 179.141 66.9747 175.45C66.9488 173.11 67.4911 170.575 68.0175 170.575C68.1253 170.575 69.402 170.693 70.8544 170.837Z" fill="black"/>
</svg>
